<?xml version="1.0" encoding="UTF-8"?>
<svg id="Layer_2" data-name="Layer 2" xmlns="http://www.w3.org/2000/svg" viewBox="0 0 349.2 416.62">
  <defs>
    <style>
      .cls-1 {
        fill: #71983e;
      }

      .cls-2 {
        fill: #96c93d;
      }

      .cls-3 {
        fill: #7b55a2;
      }

      .cls-4 {
        fill: #603d88;
      }
    </style>
  </defs>
  <g id="Layer_1-2" data-name="Layer 1">
    <g>
      <path class="cls-1" d="M0,0v87.87c36.42,6.43,76.17,13.3,109.32,43.57,18.04,16.48,65.48,104.97,92.5,50.09C236.97,110.11,99.52,20.6,0,0Z"/>
      <path class="cls-2" d="M0,76.5v145.73c41.01,10.9,87.9-4.25,93.89-62.68C99.62,103.69,45.73,68.88,0,76.5Z"/>
      <path class="cls-2" d="M311.3,416.62c48.62-53.22,58.93-140.33-19.99-203.3C148.03,99.01,6.14,310.1,102.15,416.62h209.15Z"/>
      <path class="cls-1" d="M323.58,416.62c-.77-10.26-2.19-20.12-4.25-29.12-16.54-72.27-110.42-111.21-143.77-31.92-8.54,20.29-12.51,40.99-12.96,61.04h160.99Z"/>
      <path class="cls-3" d="M0,338.85c87.72,84.14,214.5-62.78,140.62-141.4-42.95-45.71-103.11-37.35-140.62-4.66v146.06Z"/>
      <path class="cls-4" d="M0,416.62h169.64C134.59,347.85,61.06,279.99,0,259.64v156.97Z"/>
      <path class="cls-3" d="M223.04,307.93c-17.65,1.81-22.5-29.06-3.16-30.82,21.64-1.97,24.34,28.65,3.16,30.82Z"/>
      <path class="cls-1" d="M298.69,301.95c-16.09,12.24-29.79-9.96-16.56-19.73,13.98-10.32,27.43,11.47,16.56,19.73Z"/>
      <path class="cls-2" d="M271.57,383.3c-15.28,5.44-23.56-15.29-9.47-19.97,13.69-4.55,19.93,16.24,9.47,19.97Z"/>
      <path class="cls-4" d="M198.15,341.77c-9.06-8.21,7.02-21.8,13.66-12,6.45,9.53-6.89,18.13-13.66,12Z"/>
      <path class="cls-3" d="M219.21,416.62c3.18-2.61,4.72-7,1.59-11.63-6.54-9.67-22.21,3.38-13.98,11.63h12.39Z"/>
      <path class="cls-3" d="M199.68,192.27c-17.37,3.6-12.68,34.5,6.29,30.34,21.22-4.65,14.56-34.66-6.29-30.34Z"/>
      <path class="cls-1" d="M273.61,175.15c-19.03-6.81-25.39,18.49-9.83,23.81,16.44,5.62,22.69-19.21,9.83-23.81Z"/>
      <path class="cls-1" d="M223.2,105.77c-16.21-.57-17.84,21.69-3,21.89,14.43.2,14.1-21.5,3-21.89Z"/>
      <path class="cls-2" d="M165.74,167.52c-6.16,10.57,13.28,18.67,16.64,7.31,3.27-11.04-12.04-15.2-16.64-7.31Z"/>
      <path class="cls-2" d="M130.96,69.59c-15.84,3.49-11.87,25.45,2.56,21.95,14.02-3.41,8.29-24.34-2.56-21.95Z"/>
      <path class="cls-3" d="M107.71,156.67c-3.33,11.77,17.52,14.76,17.94,2.93.41-11.5-15.45-11.72-17.94-2.93Z"/>
    </g>
  </g>
</svg>