<?xml version="1.0" encoding="UTF-8"?>
<svg id="Layer_2" data-name="Layer 2" xmlns="http://www.w3.org/2000/svg" viewBox="0 0 315.11 421.13">
  <defs>
    <style>
      .cls-1 {
        fill: #7f51b6;
      }

      .cls-2 {
        fill: #5f3d89;
      }

      .cls-3 {
        fill: #97cb36;
      }

      .cls-4 {
        fill: #719829;
      }
    </style>
  </defs>
  <g id="Layer_1-2" data-name="Layer 1">
    <g>
      <g>
        <path class="cls-2" d="M315.11,81.25C223.47-6.66,91.02,146.83,168.2,228.97c44.87,47.75,107.72,39.02,146.9,4.87V81.25Z"/>
        <path class="cls-1" d="M315.11,0h-177.22c36.61,71.85,113.43,142.73,177.22,163.99V0Z"/>
      </g>
      <path class="cls-3" d="M315.11,213.59c-27.09-13.33-61.81-11.12-82.59,13.47-60.19,71.21,27.25,129.9,82.59,109.87v-123.34Z"/>
      <path class="cls-1" d="M315.11,332.16c-38.74-16.55-82.85,41.6-52.15,74.27,15.46,16.45,35.73,17.77,52.15,10.44v-84.71Z"/>
      <path class="cls-4" d="M83.17,113.54c18.44-1.89,23.51,30.36,3.3,32.2-22.6,2.06-25.43-29.93-3.3-32.2Z"/>
      <path class="cls-3" d="M4.14,119.8c16.81-12.78,31.12,10.41,17.3,20.61-14.6,10.78-28.65-11.98-17.3-20.61Z"/>
      <path class="cls-3" d="M32.48,34.81c15.97-5.68,24.61,15.97,9.89,20.86-14.3,4.75-20.82-16.97-9.89-20.86Z"/>
      <path class="cls-4" d="M109.17,78.19c9.47,8.58-7.34,22.78-14.27,12.53-6.74-9.96,7.2-18.94,14.27-12.53Z"/>
      <path class="cls-3" d="M87.18,0c-3.32,2.72-4.94,7.31-1.67,12.15,6.83,10.1,23.2-3.53,14.61-12.15h-12.94Z"/>
      <path class="cls-4" d="M107.58,234.38c18.15-3.76,13.25-36.04-6.57-31.69-22.17,4.86-15.21,36.2,6.57,31.69Z"/>
      <path class="cls-3" d="M30.35,252.26c19.88,7.11,26.53-19.31,10.27-24.87-17.18-5.87-23.7,20.07-10.27,24.87Z"/>
      <path class="cls-3" d="M83.01,324.74c16.94.6,18.64-22.65,3.13-22.87-15.07-.21-14.73,22.46-3.13,22.87Z"/>
      <path class="cls-4" d="M143.03,260.23c6.44-11.04-13.87-19.5-17.38-7.64-3.42,11.53,12.58,15.88,17.38,7.64Z"/>
      <path class="cls-3" d="M179.37,362.54c16.55-3.65,12.4-26.59-2.68-22.93-14.65,3.56-8.66,25.43,2.68,22.93Z"/>
      <path class="cls-4" d="M221.39,285.09c3.48-12.3-18.3-15.42-18.74-3.06-.43,12.02,16.14,12.24,18.74,3.06Z"/>
    </g>
  </g>
</svg>