<?xml version="1.0" encoding="UTF-8"?>
<svg id="Layer_1" data-name="Layer 1" xmlns="http://www.w3.org/2000/svg" viewBox="0 0 697.25 953.45">
  <defs>
    <style>
      .cls-1 {
        fill: #e48949;
      }

      .cls-2 {
        fill: #df914f;
      }

      .cls-3 {
        fill: #3f501a;
      }

      .cls-4 {
        fill: #3f2a1d;
      }

      .cls-5 {
        fill: #f09654;
      }

      .cls-6 {
        fill: #291d14;
      }

      .cls-7 {
        fill: #846a55;
      }

      .cls-8 {
        fill: #403028;
      }

      .cls-9 {
        fill: #394818;
      }

      .cls-10 {
        fill: #6b802d;
      }

      .cls-11 {
        fill: #dc7c41;
      }

      .cls-12 {
        fill: #352419;
      }

      .cls-13 {
        fill: #42541b;
      }

      .cls-14 {
        fill: #14100d;
      }

      .cls-15 {
        fill: #f9a860;
      }

      .cls-16 {
        fill: #697f2b;
      }

      .cls-17 {
        fill: #e38247;
      }

      .cls-18 {
        fill: #faa460;
      }

      .cls-19 {
        fill: #374717;
      }

      .cls-20 {
        fill: #e7b62b;
      }

      .cls-21 {
        fill: #576b24;
      }

      .cls-22 {
        fill: #43541c;
      }

      .cls-23 {
        fill: #312923;
      }

      .cls-24 {
        fill: #dc7f40;
      }

      .cls-25 {
        fill: #401b0c;
      }

      .cls-26 {
        fill: #f29d5a;
      }

      .cls-27 {
        fill: #354517;
      }

      .cls-28 {
        fill: #b86132;
      }

      .cls-29 {
        fill: #263210;
      }

      .cls-30 {
        fill: #dd713d;
      }

      .cls-31 {
        fill: #ddd5cc;
      }

      .cls-32 {
        fill: #e38949;
      }

      .cls-33 {
        fill: #d97e41;
      }

      .cls-34 {
        fill: #18120e;
      }

      .cls-35 {
        fill: #e0d7d0;
      }

      .cls-36 {
        fill: #1a120b;
      }

      .cls-37 {
        fill: #41541c;
      }

      .cls-38 {
        fill: #df8344;
      }

      .cls-39 {
        fill: #576b25;
      }

      .cls-40 {
        fill: #432a1b;
      }

      .cls-41 {
        fill: #e9cfb0;
      }

      .cls-42 {
        fill: #d3773e;
      }

      .cls-43 {
        fill: #42551c;
      }

      .cls-44 {
        fill: #e2bea0;
      }

      .cls-45 {
        fill: #566b24;
      }

      .cls-46 {
        fill: #df8d41;
      }

      .cls-47 {
        fill: #df8241;
      }

      .cls-48 {
        fill: #4b2c14;
      }

      .cls-49 {
        fill: #312319;
      }

      .cls-50 {
        fill: #ab5c35;
      }

      .cls-51 {
        fill: #0b0b02;
      }

      .cls-52 {
        fill: #e3bd9e;
      }

      .cls-53 {
        fill: #de8344;
      }

      .cls-54 {
        fill: #566925;
      }

      .cls-55 {
        fill: #f07b5f;
      }

      .cls-56 {
        fill: #d6833e;
      }

      .cls-57 {
        fill: #151a08;
      }

      .cls-58 {
        fill: #7d4e2b;
      }

      .cls-59 {
        fill: #7f3d1c;
      }

      .cls-60 {
        fill: #dd7843;
      }

      .cls-61 {
        fill: #392519;
      }

      .cls-62 {
        fill: #4e6121;
      }

      .cls-63 {
        fill: #96a34e;
      }

      .cls-64 {
        fill: #6d3317;
      }

      .cls-65 {
        fill: #6a7f2c;
      }

      .cls-66 {
        fill: #db8042;
      }

      .cls-67 {
        fill: #dc9247;
      }

      .cls-68 {
        fill: #546922;
      }

      .cls-69 {
        fill: #354415;
      }

      .cls-70 {
        fill: #6b802c;
      }

      .cls-71 {
        fill: #ba7338;
      }

      .cls-72 {
        fill: #1e1814;
      }

      .cls-73 {
        fill: #313f13;
      }

      .cls-74 {
        fill: #d67a3c;
      }

      .cls-75 {
        fill: #14100c;
      }

      .cls-76 {
        fill: #111907;
      }

      .cls-77 {
        fill: #fba865;
      }

      .cls-78 {
        fill: #9a592f;
      }

      .cls-79 {
        fill: #e28848;
      }

      .cls-80 {
        fill: #232e0e;
      }

      .cls-81 {
        fill: #657a29;
      }

      .cls-82 {
        fill: #c47642;
      }

      .cls-83 {
        fill: #e26b50;
      }

      .cls-84 {
        fill: #fdaa67;
      }

      .cls-85 {
        fill: #f9ed9b;
      }

      .cls-86 {
        fill: #141b09;
      }

      .cls-87 {
        fill: #d87d41;
      }

      .cls-88 {
        fill: #d57a40;
      }

      .cls-89 {
        fill: #875732;
      }

      .cls-90 {
        fill: #3b2c25;
      }

      .cls-91 {
        fill: #dbbba1;
      }

      .cls-92 {
        fill: #b57233;
      }

      .cls-93 {
        fill: #f5cf48;
      }

      .cls-94 {
        fill: #e38848;
      }

      .cls-95 {
        fill: #5a4729;
      }

      .cls-96 {
        fill: #da964c;
      }

      .cls-97 {
        fill: #e2c1a6;
      }

      .cls-98 {
        fill: #f5a059;
      }

      .cls-99 {
        fill: #536722;
      }

      .cls-100 {
        fill: #60280e;
      }

      .cls-101 {
        fill: #566a24;
      }

      .cls-102 {
        fill: #2d1e15;
      }

      .cls-103 {
        fill: #222f0e;
      }

      .cls-104 {
        fill: #543119;
      }

      .cls-105 {
        fill: #95a548;
      }

      .cls-106 {
        fill: #221a0a;
      }

      .cls-107 {
        fill: #fca864;
      }

      .cls-108 {
        fill: #374616;
      }

      .cls-109 {
        fill: #d16f3a;
      }

      .cls-110 {
        fill: #344413;
      }

      .cls-111 {
        fill: #879940;
      }

      .cls-112 {
        fill: #161b09;
      }

      .cls-113 {
        fill: #e7904e;
      }

      .cls-114 {
        fill: #271c15;
      }

      .cls-115 {
        fill: #cb7d37;
      }

      .cls-116 {
        fill: #92562b;
      }

      .cls-117 {
        fill: #dc7c39;
      }

      .cls-118 {
        fill: #742016;
      }

      .cls-119 {
        fill: #130c08;
      }

      .cls-120 {
        fill: #8a3518;
      }

      .cls-121 {
        fill: #e38747;
      }

      .cls-122 {
        fill: #843814;
      }

      .cls-123 {
        fill: #fda966;
      }

      .cls-124 {
        fill: #0d0a08;
      }

      .cls-125 {
        fill: #99a651;
      }

      .cls-126 {
        fill: #8c3114;
      }

      .cls-127 {
        fill: #3d2f28;
      }

      .cls-128 {
        fill: #556924;
      }

      .cls-129 {
        fill: #fdaa66;
      }

      .cls-130 {
        fill: #bb7936;
      }

      .cls-131 {
        fill: #2f3e13;
      }

      .cls-132 {
        fill: #687d2a;
      }
    </style>
  </defs>
  <g>
    <path class="cls-43" d="M623.58,953.45h-280.64c-15.23-1.39-30.49-3.11-45.8-5.15-12.77-1.26-25.99.74-37.89,5.15h-91.24c-.62-1.04-.52-1.95.62-2.29,17.47-4.21,33.57-11.86,48.16-22.57l8.03,1.44c6.47,5.09,17.63,3.43,18.87-5.54l1.44-1.74c124.3,22.42,254.12,34.75,374.31-4l2.43,1.79,3.2,31.83-1.49,1.09Z"/>
    <path class="cls-68" d="M342.95,953.45h-83.69c.25-1.24,1.14-2.11,2.7-2.61,11.82-3.74,24.31-5.56,36.8-3.96l39.6,5.08c1.92.25,3.73.13,4.59,1.49Z"/>
  </g>
  <g>
    <path class="cls-53" d="M116.77,953.44h-27.91c-1.99-3.35-3.78-7.44-3.06-11.96l4.32-11.18c-2.27,1.5-3.48,3.45-4.98,6.16-5.08-2.46-8.84-6.95-9.3-13.24,7.84,2.7,15.63.96,23.72,1.55l35.87,2.59c26.85,1.94,52.75,2.02,79.92-2.14-25.43,20.52-56.91,27.33-88.71,25.7-3.68-.19-7.12.28-9.87,2.53Z"/>
    <path class="cls-79" d="M317.71,885.65l-24.31,10.95c-45.13,20.33-93.99,29.48-143.62,27.27l-45.68-4.23-19.34.07c-9.89-.96-18.48-4.91-24.76-12.82-8.27-10.42-14.4-22.16-19.64-34.07.91-1.19,1.74-2.52,2.49-3.99,7.62-12.77,16.7-24.39,27.23-34.86,1.61-1.21,2.91-1.55,4.05.33.33,2.07-.48,4.19-2.45,6.36-15.69,30.42,7.86,56.56,39,59.3,81.18,6.75,166.18-13.4,241.23-49.47l109.22-51.3c9.99-3.95,20.14-7.15,30.46-9.61,3.38-1.89,5.73-4.98,7.04-9.28.67-.83,1.5-.26,2.35.47,2.88,2.83.34,11.09-1.42,14.64l-2.65,4.36c-20.38,5.5-39.77,13.32-58.15,23.45-39.87,21.06-79.68,42.19-119.45,63.39l-1.58-.97Z"/>
    <path class="cls-94" d="M662.44,877.26c.8,1.68-.62,5.68-1.96,6.97l-3.14,7.62c-4.01,9.72-12.17,16.22-22.5,18.87l-26.65,6.85c-46.17,13.75-93.23,20.85-141.58,22.18-32.51.89-63.97-.95-96.36-3.86-34.38-3.08-67.59-7.56-101.34-13.5-.95-2.28.81-2.39,2.84-2.45,13.28,2.08,26.49,4.18,39.63,6.3,1.59-1.32,3.34-2.03,4.91-.34.32-2.44,2.11-3.82,5.35-4.14,2.8-.05,5.35-.6,7.65-1.64,15.21-15.4,31.28-29.87,48.2-43.39,1.46-.83,2.42-.52,3.19,1.03l.69,1.79c-4.78,6.8-5.44,14.01,1.55,19.58,11.94,9.52,40.72,12.22,55.15,13.49,57.44,5.08,114.21-2.41,170.39-13.79,19.02-3.85,41.7-19.16,29.67-40.26l.3-2.15c.97-2.28,2.61-1.75,4.47-.68l15.53,12.17c2.1,3.1,3.45,6.21,4.03,9.34Z"/>
    <path class="cls-87" d="M465.98,813.12c1.24,1.46.72,2.41-.77,3.3-29.77,16.04-59.07,35.68-81.79,60.33l-2.77,1.01c-2.53-.31-4.07,1.41-5.89,2.99l-14.06,12.25-22.38,19.7-7.22,7.86c-3.46,3.77-7.24,1.1-13.38,4.21l1.01,4.03c-2.19.17-3.12-1.11-4.22-2.56-1.4.59-2.01,1.03-3.28,2.23-1.66-2.3-3.47-1.19-5.3-1.48l-31.52-5.02c-1.94-.31-3.92-1.02-5.52.43l-22.51-3.96c26.01-7.42,49.99-17.34,73.29-29.92l53.24-28.74,66.45-35.34,26.61-11.32Z"/>
    <path class="cls-33" d="M183.18,771.79l-3.03,2.29c-38.62,9.42-75.81,28.78-102.57,58.59l-3.46,1.64c-3.27-.15-4.82,2.74-6.78,4.94l-5.65,6.37c-5.98,6.73-11.63,13.35-16.02,21.33-1.24,2.26-2.39,3.91-2.43,7.14-1.19-1.08-1.75-1.55-2.89-1.26l-2.72-6.19c-1.15-.69-2.22-3.12-1.7-4.75-.16-.44-.15-1.47-.81-1.54-.65-1.9.26-3.2,1.53-4.93,25.88-35.27,68.99-64.7,110.74-77.82,12.04-3.78,23.69-5.38,35.79-5.8Z"/>
    <path class="cls-66" d="M661.85,854.62c.83,1,2.67,2.59,5.52,4.78l-.1,1.71c1.39,2.59.86,5.47-1.6,8.65-.4-.37-.75-.77-1.01-1.25-.7,2.45-1.19,4.84-1.45,7.17.54.7.19,1.73-.76,1.6-3,1.89-1.1-5-5.39-8.41l-12.89-10.21c-1.79-1.42-3.21-2.64-5.73-2.21h-2.2c-32.76-24.15-71.91-42.52-112.14-51.02-2.11-.87-3.1-2.39-.64-3.3,21.85-.44,59.82,12.99,81.36,22.72,19.79,8.94,38.7,18.47,57.06,29.78Z"/>
    <g>
      <path class="cls-106" d="M672.71,863.35l1,2.1c-.01,1.53-5.66,18.54-6.64,20.81-3.32,7.68-5.41,12.46-10.41,19.4-1.9,2.64-4.34,4.65-7.16,6.11,5.94-.8,11.9-2.08,17.33-4.75l2.52.46c2.44-1.11,6.3-.98,5.97,2.41-10.98,8.7-28.54,10.52-43.12,8.33-2.4-.36-4.69-.45-6.57.82l3.17,34.41h-5.23s-3.35-33.3-3.35-33.3l-20.56,5.68c-58.56,16.17-119.18,22.19-180.09,19.2-58.68-2.88-116.44-10.13-174.1-21.1-1.07,4-2.34,7.56-5.5,8.85-5.81,2.37-10.91,2.48-15.72-1.31-2.01-.25-4.84-.16-7.16-1.52-13.36,10.35-28.05,17.42-44.47,21.7-1.77.46-3.55.69-4.62,1.79h-51.25c-.22-2.26,1.49-3.56,5.13-3.9,30.4,1.15,61.37-3.03,86.79-21.29-16.09,1.44-32.26,2.07-48.5,1.9-25.7-1.79-51.15-3.07-76.34-3.85-5.21-1.16-7.01-.74-5.39,1.26,2.08,3.68,5.59,9.76,8.29,3.58,1.99-2.11,3.25-3.08,4.61.38-2.92,5.15-4.16,10.22-3.72,15.21l2.1,5.05-.88,1.66h-5.72c-2.72-3.86-1.03-9.23-1.56-13.63-2.55-2.88-6.89-5.16-8.13-8.8l-1.85-.68c-3.56.73-4.51-3.33-.9-3.83-.81-1.38-1.66-2.8-2.55-4.25-7.72-4.39-14.02-10.61-18.8-18.14-7.64-12.04-14.85-25.25-19.29-38.55-3.01-1.91.09-10.87,3.63-6.93.44.54.92,1.11,1.44,1.71,2.25-.73,2.74.2.81,1.54-.37,1.78.35,3.62,1.7,4.75,2.13-1.25,4.69,4.82,2.72,6.19l2.9,2.58c5.35,11.54,11.45,23.06,19.85,32.65,5.34,6.09,13.83,9.3,21.75,10.07,21.6.02,43.27,1.4,65.01,4.16,58.51,3.68,115.51-12.77,166.32-37.7l1.51,1.07c2.34-1.24,3.41,1.08,1.97,2.87-.69.84-1.41,1.65-2.2,2.38s-1.56,1.43-2.46,1.89c-19.77,10.22-40.32,18.76-61.6,25.27l14.6,2.57.87,1.77c15.98,2,31.94,4.26,47.88,6.78,1.83-.25,3.65-.39,5.43-.19,62.01,7.21,121.99,12.73,184.25,6.71,45.33-4.38,89.55-16.14,130.64-27.31,11.67-3.57,17.95-13.05,21.51-23.79l1.88-.38,1.02-.8c.49-2.87,1.35-5.54,2.58-8.01-.83-1.85-.64-4.16.58-6.93.65-.61.98-.19,1.01,1.25,1.72-3.31,2.54-6.94,2.46-10.89-1.09.73-1.45.28-.77-.85-1.66-4.14,2.89-4.34,5.79-1.29,2.19,2.3,2.96,5.6-.44,6.63Z"/>
      <g>
        <path class="cls-7" d="M235.56,929.78c.08,3.77-8.12,2.3-8.62-.73-.34-2.08,2.21-3.59,3.9-3.35s4.68,2.59,4.72,4.08Z"/>
        <path class="cls-29" d="M72.84,923.96c1.77.15,3.87,5.14,2.86,6.1s-2.24-2.09-2.86-6.1Z"/>
        <g>
          <path class="cls-57" d="M665.67,869.75l1.6-8.65c-.65-1.89-.37-2.64.86-2.24,1.28,1.4-.37,3.28.2,4.07,4.32,2.87.28,2.31-2.66,6.82Z"/>
          <path class="cls-57" d="M660.48,884.23l1.96-6.97.76-1.6c-.54-1.45.05-1.61.88-.24-.4,2.74-1.03,5.3-2.29,8.35.44.73-.75,1.78-1.32.46Z"/>
          <path class="cls-94" d="M664.66,868.49l-.58,6.93-.88.24-.69-1.7c.59-1.91,1.1-3.69,2.14-5.46Z"/>
          <path class="cls-57" d="M37.64,866.63c-.55,1.26-1.62.3-1.08-.5-1.34-1.36-1.98-3.29-.62-4.25l1.7,4.75Z"/>
        </g>
      </g>
    </g>
    <path class="cls-84" d="M500.96,780.79c-.88.14-1.79.98-2,1.95-1.22,5.48-5.26,8.42-10.52,9.55-11.08,2.39-21.28,5.7-31.56,10.56l-60.56,28.64c-26.65,12.61-52.71,25.06-80.11,36.12-48.52,19.58-99.03,31.54-151.3,34.96l-42.24-.02c-9.35,0-17.92-1.84-26.82-4.39-18.3-5.25-31.41-21.46-30.79-40.88.27-8.37,4.04-16.82,9.07-22.98,25.37-31.05,70.34-54.48,109.06-62.51l32.85-1.16c32.53-1.15,64.29-2.82,96.69-6.9,34.69-4.37,67.77-12.5,101.6-20.92l47.34-11.78c8.94-2.22,17.55-.06,24.25,6.72,11.12,11.26,15.65,27.53,15.07,43.03Z"/>
    <path class="cls-123" d="M523.44,802.11c-.4,1.32.37,1.66,1.88,1.96,35.68,7.01,72.34,24.56,102.77,44.36,3.85,2.51,7.58,4.87,10.33,8,5.12,5.84,6.09,13.68,3.04,21.19-5.73,14.13-20.47,20.38-35.48,23.36-63.74,12.69-129.49,20.61-193.92,9.9-12.82-2.13-32.82-6.77-35.62-18.43-1.31-5.46,1.24-10.58,4.21-14.69,3.95-5.46,8.71-9.84,14.05-14.6,21.08-18.77,44.08-34.66,69.09-47.75,1.14-.6,1.65-1.28,2.18-2.3,12.34-4.3,24.26-8.87,37.4-10.6l20.05-.41Z"/>
  </g>
  <g>
    <g>
      <path class="cls-124" d="M468.12,228.28c-1.2.48-2.47.62-4.08.47-.58-.25-1.41-.7-1.32-1.14,1.02-5.15,5.04-19.6,7.16-24.04l1.86-.66-.57-3.79c3.49-12.74,6.06-25.58,7.73-38.53-1.55-.51-2.54-1.84-1.76-3.4,3.62-3.58,4.97-8.14,5.02-13.16,2.07-3.61,3.19-7.69,3.35-12.23l1.74-.79-3-7.17c.98-5.2.43-15.97-3.17-19.92-.16-.17-.59-.1-1.11.05.64,3.61-1.71,1.96-2.47-1.59,1.94-17.95-6.8-34.36-23.1-42.36-5.98-16.47-19.08-21.38-34.58-25.45-.8-.21-1.35-.71-1.69-1.49-3.23-.78-2.76-3.45.69-1.89.02-1.65.83-1.64,2.2-1.32-7.14-8.05-18.49-11.47-29.11-11.7l-2.14-1.58c-6.93.89-8.77-.43-5.54-3.94-1.62-.94-1.85-.96-2.54,1.09-2.91-.11-5.87-.61-8.87-1.51-7.14-1.02-14.29-.77-21.46.74-4.78-4.66-17.53-1.73-23.46.45-3.92,2.36-10.07,4.36-6.63-1.5,1.5-2.55,5.79-5.29,8.55-6.43-11.39.66-21.59,6.17-29,14.59l-4.99,3.26c-3.81,6.58-9.24,2.6-3.83-2.65-1.77.22-2.71-.29-2.81-1.51-.54.38-.98.66-1.02.61-1.42-1.68,1.2-2.52,2.74-2.73,1.32-1.04,4.59-1.41,6.82-1.65,11-12.82,29.91-18.08,46.36-14.16,4.32,1.03,8.83,1.39,12.17,4.76-6.27-.93-11.76-1.63-17.17.57l13.03,1.58c12.92-3.34,26.4-2.75,38.17,4.49,16.35-.6,31.73,6.43,41.42,19.32,13.1,3.51,23.24,12.76,28.5,24.96,15.45,7.98,22.97,23.53,23.29,40.45,3.97,8.12,9.83,15.63,5.21,24.98,4.28,11.21,1.93,22.19-2.77,32.79l-1.74,10.48c-.61,3.64-1.13,7.12-1.8,10.91-3.16,17.91-8.24,34.98-14.25,51.72Z"/>
      <path class="cls-72" d="M290.61,15.65c.09-.34-.16-.91-.47-1.01-.38-.13-1.09-.02-1.39-.05,1.8-.72,3.39-1.92,6.01-1.99-1.21,1.52-2.68,2.21-4.15,3.05Z"/>
      <path class="cls-72" d="M337.37,159.8l-1.22-.54c.44,2.64-.24,4.12-2.04,4.43-.53,2.88,3.76,5.51,3.35,5.95l-1.44,1.55c-2.91.72-6.03-.97-7.62-3.89-3.69-.26-5.57-2.59-6.66-6.09-2.07,1.05-4.02.98-4.81-.59-.63-1.41-.39-2.27.73-2.6.18-1.39,2.26-1.07,2.82-1.65l.98-5.72c3.08-4.24,3.95-10.56-.14-14.44-1.97-1.87-3.02-3.56-4.41-5.99s-3.68-4.28-4.94-7.2c-3.32,4.52-5.09-2.77-8.72-1.28s-1.31,4.88-3.59,6.8c-4.37-3.22,1.09-5.04-.09-10.71-.4-1.9-2.61-2.15-3.88-3.6-.31-1.1,1.5-3.73-.59-5.12-1.41,2.9-3.2,4.89-5.99,6.08-3.51,1.51-4.64,5.61-2.22,8.92-.76,2.89-.78,6.33-2.11,8.97-1.16,1.8-3.84,3.07-5.52,4.09-.88-.87-2.55-1.33-2.61-2.85-.15-2.3,2.45-2.81,3.29-4.43l4.26-8.27c-3.27-.91-4.78.08-7.16.38-3.61-3.02-4.96-6.91-4.49-12.04-4.06,2.84-3.84,7.57-5.03,11.53-.96.58-2.86-.94-2.87-2.4-.07-8.37,1.63-16.86,6.47-23.79-.57-1.52-2.5-1.67-3.82-1.56-.96.08-2.02,1.85-2.9,2.5-1.7-.41-3.25-1.53-4.76-.6-.98.6-1.51,1.95-1.54,3.41-.14,6.32-6.71,8.04-10.86,14.13v8.36c0,1.35-1.91,2.87-3.04,1.75-6.08-6.02-5.3-16.36-.25-24.1-.27-1.8-.88-3.35-.7-5.17l15.27-7.15c1.06.92,1.15,2.09,1.66,4.3,3.43-3.43,7.15-4.09,10.73-6.13,2.58-1.48,4.29-4.33,8.1-3.84-1.5,2.07-3.22,3.72-4.07,6.36-.22.7,1.21,2.01,1.76,1.6l1.74-1.29,12.32-5.82c-.47-1.33-.68-2.09-.59-3.28l12.46-.77c5.96-.37,11.12,2.38,16.95,4.9,3.52,5.03,4.99,12,2.31,18.6-3.45-4.33-7.22-7.1-11.92-8.02-1.48,2.27.96,3.72,1.15,4.99.68,4.69-3.01,8.25-2.98,9.2.1,3.32,3.55-.86,6.29.75.81.48,1.35,1.87,2.21,3.19,1.61-1.56,2.74-2.36,4.02-2.64,1.66-.37,2.83.4,4.24,1.36l4.73,3.23c4.6-3.38,9.6.68,14.94,3.5,2.38-.14,6.13-2.21,8.75,0,3.33,2.81,4.52,7.58,3.85,11.93-2.25,5.15-4.91,9.71-8.49,13.97,1.29,3.91-.69,6.9-2.9,9.88-.02.84-.76,1.85-1.42,1.97-.5.1-1.31-.95-1.76-1.21l-3.45,3.6c-.94.99-1.71,1.44-1.76,2.61Z"/>
      <path class="cls-12" d="M264.43,143.01c1.42-.58,1.65-.02.46,1.03l.27,1.18c-1.6,1.48-2.88,3.17-3.84,5.06l-2.85,17.4c-4.72,6.19-16.69,8.71-20.11,25.02l-4.68,22.29c-.28-.45-.09-1.23-.9-1.99l-2.56,11.13c-3.77-5.52.53-12.02-.56-18.43l-1.7,7.9c-2.42-1.5-1.99-3.87-2-6.07-.02-4.84-4.33-8.28-5.43-12.37-2.12-7.88-1.79-16.17-1.53-23.89,3.6-4.97,9.09-4.7,14.63-3.49,2.04-1.55,4.25-2.71,6.63-3.47l3.89-3.56c5.62-2.14,8.79-6.46,9.52-12.97l1.89-.13c1.34-2.1,3.92-4.26,6.45-5,.62.04,1.76,1.03,2.41.34Z"/>
      <path class="cls-49" d="M471.73,202.91l-7.69,25.83c-1.29,4.34-3.57,8.22-5.77,12.54-1.32,2.59-1.84,5.66-5.49,6.33l3.5-17.89c.25-1.26.07-2.57-.84-3.09.67-4.21,1.88-8.91,1.39-13.55-.58-5.44-4.35-9.92-6.61-14.68-1.53-3.22-.33-6.58.16-9.51.2,1.14-.14,2.47.93,3.61.46-5.01,1.21-9.04,2.6-13.69l.27-3.1c.05-.55,1.91-1.04,2.22-.5l5.91,10.27c4.19,7.29.38,11.39,5.33,15.04-1.51,1.26-2.69,2.67-1.5,4.76.89-1.57,1.88-2.57,3.94-3.24.19-.59,1.09-1.1,1.27-.52.15.5.06,1.04.4,1.41Z"/>
      <path class="cls-72" d="M255.57,147.66c-1.17,1.83-1.61,4.36-2.05,6.51-.95,4.59-4.61,5.61-7.94,7.55-2.58,1.51-3.95,5.25-7.77,4.63-1.6,3.31-5.16,3.66-8.06,2.49-4.45-1.79-5.93,1.95-10.74,2.44.09-2.47-1.17-6.43.43-8.71l7.88-11.23c.55-.79,2.25-.23,2.32.41.05.44.38,1.6.8,1.88,2.33,1.55,5.34-.18,7.61-.2,11.89-.1,11.04-10.75,17.52-5.77Z"/>
      <path class="cls-72" d="M270.12,142.1l1.62.79c-13.91,4.54-10.05,20.57-13.26,24.79-.19.05-.55-.71-.4-1.47l1.97-10.09c1.21-6.18-3.33-4.88,4.85-12.08.35-2.4,3.25-2.76,5.23-1.94Z"/>
      <g>
        <path class="cls-72" d="M389.75,16.61l-.39,1.72c9.13.91,18.98,3.75,26.78,8.67,1.23.78,3.08,2.7,2.68,4.2-.15.09-1.33.11-1.5.62-.12.37.64.97.82,1.27l-.44,1.05c9.03,1.21,29.89,12.35,32.4,21.14.23.82.07,1.63-.4,2.33,3.14,2.7,5.74,6.11,7.21,10-.18-1.52.47-2.19,2.03-2.25,7.92-.32,18.44,25.34,17.28,32.42.89,2.2,1.5,4.46,1.84,6.79,1.51.77,3.41,3.65,1.67,5.06l2.01,1.03c.94,4.25,1.35,8.08,1.23,11.5,1.9,2.48,3.33,5.43,4.3,8.86l-1.28,8.03c-.38,2.4-.95,4.14-2.37,5.52.17,5.43-1.71,10.41-5.72,13.99.83.28,2.23.68,2.62,1.18-.12,8.28-2.51,16-4.1,24.06-1.33,6.74-2.82,12.97-4.65,19.13l-4.39,2.94c-3.53,1.04-4.17-2.85-2.05-5.28-1.74-3.27-2.75-7.01-3.01-11.23-1.88-4.1-4.04-8.09-6.49-11.98-1.32,4.72-2.27,9.53-2.85,14.42-2.74,3.17-2.98-.24-2.58-2.91-2.49-.62-1.04-8.03,1.39-8.27l.31-5.85c-1.98-4.17-3.64-8.52-4.96-13.05-5.69,3.45-11.71,4.96-18.07,4.52-5.98,3.64-11.96,7.28-19.2,4.82-3.61,1.38-6.88,1.12-10.21-.82-2.76,1.59-5.62,2.93-8.6,4.02-4.78-.56-9.18.04-13.2,1.79-.68-1.02-1.41-1.08-2.29-.43-1.55,1.44-6.28,3.34-7.01.53-1.75,2.15-2.27.63-2.7-1.63-3.75,1.03-16.56,4.18-18.65,1.07-1.1-1.64,1.85-3.23,3.39-3.49l.53-1.97c2.97-.66,5.8-1.66,8.5-3.01l-1.15-1.07-1.86-1.26c4.36-3.35,7.68-12.89,6.99-17.81l.46-9.55c.18-3.84-5.47-8.44-3.71-12.62l6-14.25c1.42-3.36,3.68-4.64,6.1-6.89,2.12-1.98.9-7.14-.55-8.95-.93-1.16-1.95-1.22-2.76-1.06-2.67.5,1.3,8.79-7.33,13.81-1.45.85-2.27,2.67-4.65,2.61,4.47-4.61,4.94-10.66,2.91-16.56-1.42.63-2.4.95-3.45,1.8-.53,6.15-2.27,12.44-7.78,16.01-2.74.41-6.81-2.08-8.89-4.21-1.44.59-2.01,1.55-3.37,2.75-4.08-2.43-8.01-5.17-11.46-8.47l-.09-11.45c-.02-3.14.26-9.04,4.66-8.56,5.67.62,10.51,5.45,13.11,9.91.96-1.74.21-3.49-.23-5.19,2.91-.54,4.77.9,6.53,2.2.94-.99,1.58-1.68,1.62-2.21s-.65-1.86-1.18-1.99c-2.85-.67-2.77-3.58-4.24-5.31s-5.16-3.82-7.25-4.46c-3.98-1.22-5.78-2.61-8.08-5.84s-6.04-5.92-7.31-10.03c-2.48-8.07-9.61-2.28-11.6-8.34,2.72,1.19,7.19,1.78,8.5-1.44.98-2.43,1.22-4.4,3.66-6.33,12.26-9.71,29.56-12.22,44.06-5.43,10.37,4.86,17.21,13.81,21.64,24.34,1.03-3.38-1.16-6-2.28-8.94l3-1.66c-2.89-5.56-8.25-7.9-13.26-10.91-4.43-2.67-8.38-5.23-13.66-6.18-3.5-.63-6.69-1.9-9.23-4.11,1.48-.41,2.09-3.4,1.12-3.8l-6.7-2.71-12.62,1.78c3.73,3.75,10.26,2.88,9.77,6.7-5.22.92-10.12,2.18-14.8,4.06l-5.69-.69c-3.25.62-8.21,3.29-9.78,6.31-.7,2.04-.53,4.32-3.19,4.99l-2.49,2.06c-.69.57-2.6-.96-3.74-1.03-5-.32-8.98-1.87-13.08-5.32-1.49,3.11-.75,5.22-.99,7.34-2.83.39-4.05-.39-4.74-2.37-.98-2.8-4.68-4.72-7.82-2.65,5.52,7.97,10.39,3.94,14.57,8.49,8.15-1.81,17.84-.03,23.22,7.12,2.23,2.96,2.27,7.2,2.98,10.74l-7.49-1.3c-1.09,1.05-1.68,2.29-2.44,3.88-7.85-.76-14.01,5.98-16.21,3.05-.59-.79-.06-2.39,1.14-3.05l-5.05-.66c-.95-2.66-1.44-5.52-3.29-7.8-1.19-1.46-5.73-1.48-6.55.35-1.17,2.59-1.6,5.18-3.07,7.32l-.55,2.93c-.13.69-2.04,1.49-2.84,1.27-3.13-.84-3.92,1.85-5.55,2.48-3.59,1.38-6.72,2.75-8.44,6.55-6.32-.58-1.07-6.15-4.96-11.93l-.11-2.72c-.11-2.86-8.32,2.73-8.25,8.47.02,1.56-.06,4.16-1.96,3.77-1.92-6.06,3.34-11.62-2.62-9.32-1.52-.49-1.54-3.3-.86-5,.44-1.1,2.43-1.5,3.54-2.79,1.69-1.98-1.79-3.89-2.91-4.93-1.38-2.65,1.38-6.22,2.8-8.72,7.64-13.41,21.71-20.48,37.49-19.08-.31-1.91-2.18-1.77-3.14-2.22,1.6-6.1,6.14-8.5,11.04-11.55.35-.22-.76-1.24-1.24-.8-.26.24-.68.53-1.7.89-.39-1.86,1.47-2.29,2.89-3.1-.2.32-.06.96.21.96.45,0,1.32-.21,1.54-.37-.6.59-2,.17-2.2,2.05l6.95-.41-5.03,6.23c.77.35,1.71.34,2.37.13.76-3.57,4.89-4.48,7.07-6.42,3.14-2.79,5.2-5.72,8.92-7.91,7.94-4.68,16.78-7.69,26.28-6.87,2.99.26,4.87-3.04,11.38-.62l-15.5,3.53c-3.46.79-7.79,4.51-10.27,8.36,8.04-4.77,15.65-6.4,24.79-5.83,2.42.15,5-.67,6.14,2.39,10.03-2.7,19.71-2.25,29.49,1.12-.01-1.49-1.06-1.86-1.62-2.66,3.25-.32,5.59,1.05,7.58,2.62-2.12.68-2.54,1.66-3.53,3.4l6.05.43Z"/>
        <g>
          <path class="cls-121" d="M451.76,180.61c-.39-1.76-.33-3.61-.08-5.78-2.95-2.65-5.93-4.73-8.49-8.43-1.66.24-4.31.23-6.27,1.05-7.35,3.07-13.65,2.78-17.39,4.85-5.53,3.06-10.87,1.5-16.51,1.2-8.89,4.19-13.84,7.01-23.65,3.43-2.91,1.47-5.92,5.29-10.27,3.44,1.71-2.12,4.29-3.24,7.32-3.66,1.98-.37.5-2.17-.88-1.09,3.83-2.39,7.5-3.67,12.28-2.8,4.29.78,8.17-3.23,11.88-4.12,2.03.63,5.15,2.58,7.96,1.29s4.87.05,7.18.35c5.38.72,9.41-3.64,13.77-5.62,3.17-.46,6.85.8,10.2-.93l9.08-4.68,4.14,11.95c1.06,3.07.2,6.79-.27,9.54Z"/>
          <g>
            <path class="cls-121" d="M368.52,176.15c-.39.7-.11,1.44-.02,2.32-2.91,1.03-5.54,1.87-8.09.71,2.01-.59,3.47-.81,3.54-2.78l-6.63,2.28c-2.94,1.01-6.96,1.65-9.4-.54-5.18-4.66-8.16,2.13-11.05-3.19,1.41.06,3.33.93,4.04-1.37-1.9.72-4.07,1.18-4.91-.51,5.57,1.09,10.14-1.48,15.1-3.72.7.17.68.43,0,.76.54,1.36,2.21,1.76,4.29,1.76l-7.88,3.15c10.31.96,19.78-1.77,28.15-7.27l3.5,2.89c-3.93,2.25-7.59,4.04-12.04,3.6-.14,1.16.63,1.59,1.41,1.9Z"/>
            <path class="cls-67" d="M351.09,170.12v-.76s7.35-3.32,7.35-3.32l5.61-2.51c-3.09,6.11-6.85,7.53-12.96,6.59Z"/>
            <path class="cls-90" d="M418.12,33.09c5.79.17,11.21,2.17,16.78,4.55,9.73,4.17,17.19,11.52,20.62,21.37,17.61,8.52,26.36,26.84,23.04,45.61.77.03,1.13-.35,1.4-.64,3.92.66,4.43,8.82-.26,5.65-1.45-3.96-4.69-8.11-5.27-12.68-.94-7.34-2.1-13.89-6.14-20.16-2.56-3.98-5.01-8.11-10.18-10.26.16,2.13,1.34,4.61-.27,6.87-2.86-7.23-5.99-13.16-12.26-16.67,1.54-.85,2.36.11,3.57.12-7.27-13.33-23.54-19.43-37.52-23.38,2.35-.74,4.53-.44,6.5-.38Z"/>
            <path class="cls-8" d="M418.81,31.2c-1.61-.21-2.78-2.58-4.31-3.4-7.74-4.12-16.25-7.19-25.15-7.87-4.4-.33-8.53,1.69-13.21-.68,3.21-1.89,6.99-2.38,10.93-2.02l2.68-.62c13.75-.36,27.13,4.57,35.75,15.47l-6.69-.88Z"/>
            <path class="cls-127" d="M487.24,131.01c-2.15-1.05-1.1-4.72-6.07-8.2.21-4.71.06-9.02-1.47-13.18.95-.22,1.82-.75,2.03-1.37.5-1.47-1.4-2.43-1.77-4.28-.03-.63-.28-1.45.52-2.61,5.26,5.92,6.72,13.73,5.41,21.76-.46,2.81,1.71,5.63,1.35,7.88Z"/>
            <path class="cls-46" d="M387.04,163.29c-2.34,3.39-5.52,4.88-9.44,2.62,7.35-4.68,11.39-11.2,12.96-19.04.8,5.96-.13,11.52-3.51,16.42Z"/>
            <path class="cls-56" d="M413.47,161.05c-1.97,3.21-5.28,4.28-8.25,3.02,5.72-4.7,9.32-10.15,11.6-17.16.28,4.73-.61,9.66-3.35,14.14Z"/>
            <path class="cls-130" d="M407.07,166.62c-2.32.85-3.63,1.09-5.87.95.58-1.11,1.52-1.92,2.37-2.12,1.16-.28,2.5.48,3.51,1.17Z"/>
          </g>
        </g>
      </g>
      <g>
        <path class="cls-34" d="M288.75,14.59c2.22-.67,4.02-1.17,1.86,1.06l-1.48.84-.45,1.03c1.98,1.12,2.32,2.27,1.03,3.45-4.3,2.12-7.47,5.1-9.53,8.95,2.75,1.14,3.17,3.99.19,4.83-16.82-1.43-33.88,9.18-38.09,25.48,4.8,2.7,4.75,6.76-.41,9.11-1.12,1.93-.14,2.93,2.94,3l.92,1.81c1.38-2.11,5.7-6.7,8.37-5.35,1.84.93,3.72,11.31,3.27,14.01.21,1.19,1.6.31,4.15-2.63,3.56-2.34,8.82-5.28,12.88-5.54,1.03-3.53,2.3-7.02,3.8-10.46,6.6-5.89,10.87.41,12.66,6.82,3.16.15,5.55.71,3.77,4.32,4.52-2.02,9.15-3.32,13.9-3.9,1.42-3.57,4.29-4.55,8.63-2.94.69-12.43-13.71-16.54-24.23-14.41-2.47-1.78-5.31-2.89-8.5-3.32-14.01-5.83-1.94-15.32,4.13-3.47l1.02.37c-.37-4.61.94-6.85,3.94-6.72,1.32,2.21,13.86,5.98,15,5.62,2.2-.71,4.77-3.57,4.77-6.07,3.37-5.56,10.44-8.45,16.67-6.53,4.11-1.62,8.33-2.88,12.65-3.81l-4.86-1.87c-2.91-1.29-4.63-2.5-2.06-5.21.43-.45,11.11-1.77,12.34-1.66,3.28.29,10.98,3.85,7.89,7.95,11.62,4.02,23.57,8.39,32.7,17.1,2.19,2.33,3.5,4.88.07,6.54,4.98,10.04-.83,12.32-4.98,1.54-14.02-22.55-41.88-26.71-61.3-8.87-.69,2.92-2.1,5.1-4.24,6.53,3.55,1.22,6.02,4.11,7.4,8.66,3,4.14,6.39,7.78,10.16,10.91,5.62,1.94,10.87,4.17,13.06,10.18,6.75,3.52,2.42,10.25-4.02,5.74-.04,7.74-4.03,3.82-6.85-.11-9.49-9.05-13.25-4.82-11.27,12.69,2.79,2.79,6.07,5.53,9.83,8.22,1.24-3.44,4.14-3.3,8.69.43,6.91,3.33,9.36-9.29,10.12-14.37,7.77-6.91,8.52,5.22,6.58,10.83,3.88-2.19,4.34-6.59,4.66-10.67,4.79-7.48,10.39,2.54,7.97,8.7l-6.16,6.62c-1.12,1.89-6.46,14.08-6.71,15.79-.13.88-.05,1.67.3,2.49,4.21,5.99,4.18,14.38,3.25,21.42-.86,6.49-3.17,11.09-6.75,16.31.57,3-5.1,3.73-7.34,3.32,1.17,2.51-9.02,5.61-9.53,5.31-.38-.23-.62-.71-.81-1.26-1.58.38-3.35.73-4.76-.33-1.87,2.59-.98.1-.88.21,1.21,1.31.76,2.1-.89,2.79.1.38.16.74.07,1.06-.12.42-7.94,1.31-6.8-2.29-4.56-2.95-8.78-6.32-12.65-10.1-1.84-4.36-4.21-5.34-7.09-2.93-3.91,1.88-7.21,2.21-9.89,1,.28,2.39-4.23,2.21-4.58-.06-4.94.16-3.1-3.44,1.11-3.24-3.86-.22-12.28-7.54-11.1-11.27.51-1.63,1.64-1.86,3.25-1.36,3.26,3.57,7.08,3.63,10.23-.21-6.14-1.93-12.07-4.48-17.79-7.64l.27-1.88.45-2.1c3.58-1.92,5.48-5.49,5.7-10.71-3.4-6.17.24-9.26,5.76-12.36,3.14-5.3,7.57-5.47,6.15,1.46,3.46,2.07,4.27,3.58,3.86,7.64,2.82-1.78,5.65-1.17,8.5,1.85,1.43-1.11,2.58-1.25,3.47-.44.91.36,10.99,14.5,11.6,15.81,1.97,4.28.68,9.3-1.78,13.08-.2,5.47-1.96,7.68-5.29,6.63-.71.47-1.87-.02-1.76-.67.04-.24,1.93,2.19,1.04,3.27,1.64-.4,3.39-.59,5.22-.59,1.65,3.37,3.99,5.37,7.04,6.01,3.85,4.37,8.91,6.76,3.37-1.01l1.55-1.34,2.21.04c-.68-1.94-.33-3.25,1.05-3.93-.03-3.58,3.08-8.27,6.84-7.08,2.56-3.2,3.57-6.59,3.04-10.19l5.06-7.51c6.22-7.77,3.92-20.93-8.03-16.46-5.12-3.85-10.29-5.12-15.51-3.81-4.35-4.14-7.82-5-10.41-2.6-1.77,1.1-3.42.27-4.93-2.48-7.15,2.23-8.44-.85-3.87-9.24v-1.72c-4.65-8.99,2.63-7.16,8.37-3.39,4.59,5.53,4.22-.4,3.34-4.67-1.39-6.72-4-7.69-10.32-9.69-2.98-.94-17.48-2.22-19.08-.73l.15,2.1c-.33.88-14.02,8.21-14.88,8.24-4.2.16-4.29-3.17-2.7-6.19-1.58,1.25-13.57,7.99-14.38,7.81-1.26-.28-1.82-2.03-2.05-3.25l-13.07,6.04c.56,3.73-.3,7.55-2.61,11.48l-.84,6.04c1.65,10.24,5.27,14.22,4.29.21,3.95-3.96,7.47-8.04,10.54-12.23.11-5.01,2.53-8.19,7.69-6.07,2.32-3.31,7.57-3.19,8.51,1.04-4.31,7.33-6.53,15.24-6.29,23.75,0-2.72,4.92-14.61,7.72-8.83.07,4.78,1.21,11.78,7.3,9.31,8.4-.35,0,13.49-4.6,14.66-.26,2.46,1,4.78,3.79,6.96,10.14,6.18-6.88,8.81-8.69,1.62-1.39.27-1.93,0-1.62-.79-1.97-.56-3.87-.25-5.68.91-.77.85-2.09,1.55-3.95,2.1-1.74,1.93-3.37,2.78-4.91,2.56-.81.58-1.98.7-3.51.36l-5.87,4.85c-4.56,1.89-15.48,5.41-17.98-.04-3.34,4.07-6,8.33-8,12.77.71,2.82.31,4.72-1.2,5.68l1.52,2.17c-.55,10.8-.31,21.05,6.12,29.87.96,4.38,1.37,5.41,1.24,3.08,4.89-5.15,3.42,6.72,2.56,9.54.37-3.84,3.44-5.8,3.24-.94l.57,5.33c-4.04,21.34-4.68,43.71-2.66,64.67,2.09,1.18,1.78,2.76,1.34,4.76,1.46.93,1.96,2.54,1.49,4.82,3.61-1.26,3.34,5.4,1.02,6.75-.4,2.48-1.15,4.62-2.25,6.41,3.34-.01,4.17,2.7,2.49,8.14-4.58,3.71-3.2,5.92,1.87,7.9l1.84,4.4c2.25-8.66,6.15,1.3,3.38,6.49-2.41,1.1-.59,4.84.94,5.76.37.22,6.52-1.47,6.35-3.26,2.29,1.2,3.19,3.49,2.7,6.86,2.21.45,3.55,2.2,4.02,5.25,2.99-1.95,4.14.52,3.85,3.37,1.84,1.01,2.78,2.23,3.44,4.19,5.58-8.58,5.94-1.5,4.26,4.1,2.03-1.21,3.73-.22,5.08,2.97,2.91,1.74,4.53,3.8,4.85,6.19,1.66,2.23,2.4,2.44,2.24.64,1.7-1.34,2.73-.74,3.09,1.82.48-3.67,2.32-2.12,3.63.8,1.59-.11,2.88.26,3.9,1.12.67,1.58,1.96,2.66,3.87,3.23,7.25-2.93,4.56,3.55,1.09,6.19-.42,3.04.09,3.25,2.32,1.12.77,2.33,1.91,4.29,3.45,5.86,4.09-1.34,6.84-.34,8.25,2.99,3.57,1.65,6.97,2.17,10.21,1.54,2.22-5.21,4.28-6.16,6.18-2.88l4.82.4c.14-2.33.87-3.62,2.19-3.86.13-1.74,1.2-1.33,2.28.07-.17,4.2,1.18,6.5,4.05,6.91,1.89-3.5,4.53-3.96,7.93-1.37,1.18-5.19,5.61-5.12,4.68.54,1.55-2.79,1.77-4.49-.55-6.82-3.24-2.02.51-4.44,3.52-2.48,2.14-3.1,3.95-4.97,7.58-5.92,1.36-2.03,2.87-3.98,4.52-5.86,1.74-.04,3.47-.12,5.18-.24,1.33-.72,2.39.23,3.16,2.83,1.7-1.23,3.39-.13,5.07,3.3,3.17-.47,4.17-2.61,3-6.44.82-2.88,3.46-5.27,6.14-3.04,1.1-1.42,2.86-2.9,4.22-.89,2.58-1.7,4.67-4.24,6.28-7.62,6.06-.48,9.46-6.35,9.77-12.19,1.21-2.65,2.68-4.1,4.92-1.64,2.66-2.96,4.67-6.41,6.63-9.86,4.73-8.33,9.97-18.38,11.14-27.56l-.7-.52,2.29-5.35-.77-.76c8.75-23.75,15.43-48.58,20.03-74.48l1.58-3.07c1.92-1.53,2.32.06,2.53,2.08l-2.92,15.61,6.93-14.4,2.06-1.17c.76-2.15,2.53-2,4.08-.47-.17.23.26,1.21.55,1.11,5.33-2.7,11.63-.92,14.64,4.36,9.72,17.08-12.79,54.91-23.84,72.45-5.92,9.39-11.46,19.17-23.92,16.41l-3.52,9.71c-.88,2.43-2.71,4.42-2.74,7.4-2.38,1.53-2.6,4.47-3.91,6.42l-3.9,5.8c-1.41,2.1-4.22,3.63-4.49,6.64l-2.27,25.37c1.69.25,2.56.44,3.48.9-.82,2.19-2.88-.47-1.07.59,2.17,1.27-.56,3.36-2.4,3.6,2.36.49,1.86,5.34-.5,5.66-1.03.64-1.41,1.48-1.13,2.51,3.08-.33,5.29,2.8,1.76,3.21v1.32c6.54,4.25,5.25,20.58,1.2,26.16-.16.22-.62.24-1.16.19-2.54.8-3.1-.82-1.7-4.85-2.28-.07-1.99-1.91.22-2.25-.33-3.97-.31-8.07.06-12.29l-2.06-.98c-.63-3.05-1.07-6.13-1.32-9.26-.44-.64-.85-1.28-1.15-1.98-2.48-5.63-.62-22.16,1.93-28.28l-1.68-.48c-13.9,12.45-29.94,25.02-46.28,34.76-14.31,8.53-26.14,12.7-43.11,10.86-18.54-2.01-31.7-9.36-44.63-22.23s-24.85-27.35-35.6-42.1l2.64,72.66-1.06,9.13c-1.1,1.55-1.99.94-3.35-.1-.52-.4-1.58-11.65-.64-12.96.26-4.23.27-8.61.04-13.14-.79.46-1.28-.21-1.46-2.01-2.15.06-5.34-1.09-4.13-4.07,1.34-.47,2.68-1.23,3.89-2.5l-3-59.37c-.18-3.53-8.44-14.39-9.64-36.04l-.59-10.6c-8.94,1.14-15.89-5.59-19.6-13.78-10.34-22.85-23.5-65.6-7.78-84.83,4.69-5.73,12.82-6.88,18.77-2.41.66.5,1.32.23,1.32-.51-.5-10.38-.63-20.82-.37-31.31,1.48-14.06,3.52-27.97,7.34-41.81-2.39-10.43.08-20.76,6.02-29.68-1.9-2.02-2.26-4.14-2.87-6.18-.45-3-.45-6.1-.06-9.12.5-1.9.74-3.67,1.77-5.46l1.03-.61c.01,1.91.28,3.74.8,5.5.49.53.64,1.59.88,2.31,1.14,3.56,2.06-1.93,2.08-4.1.71-2.17,3.03-3.97,4.34-5.92,2.92-18.41,19.67-32.47,38.32-32.46,2.36-7.42,7.9-12.43,14.49-15.05Z"/>
        <g>
          <path class="cls-72" d="M225.1,79.49c-.88-2.95-.86-6.12-.06-9.12l.06,9.12Z"/>
          <g>
            <g>
              <path class="cls-18" d="M223.68,259.73c-3.28-.34-7.29-8.62-7.58-11.82-.29-3.2,1.72-10.11,5.27-10.07l-5.64-14c-.83-5.7-6.76-18-12.81-20.58-2.88-1.23-3.65.39-4.75,2.89-.35,1.88-.92,3.39-1.69,4.53.59,5.47,1.18,11.13,1.76,16.99,1.37-3.64,3.73-7.64,8.18-6.94,1.03.16,5.5,3.55,4.05,5.04l.12,1.16c-6.28,6.67-6.06,15.18-2.08,23.01,1.44.24,2.61,1.23,3.5,2.98,2.34,1.4,4.39,3.32,6.17,5.77l4.51,1.58c.87,3.04,1.07,6.29.61,9.75-1.16,4.84-.55,9.62-.76,15.08-8.87,3.21-15.09-6.81-18.72-16.34-8.32-21.82-18.15-51.96-7.56-72.65,3.01-5.88,10.03-7.75,15.17-4.11,12.46,8.84,14.99,21.52,14.07,36.96l-1.82,30.76Z"/>
              <path class="cls-77" d="M440.21,306.66c.86,0,1.16-.72.9-2.17l2.92-10.67c1.46-2.89,3.48-4.71,6.06-5.46,3.15.69,5.62-2.23,7.43-4.63,5.68-7.52,3.55-14.02.89-22.04-1.33-1.17.32-2.8,1.79-1.78,2.96-1.91,5.67-4.17,8.13-6.77l1.53,1.65,1.21,11.39,3.68-9.9c1-4.14,2.04-8.16,3.13-12.07l-5.27,1.34c-5.26,4.49-10.14,9.47-14.63,14.93-5.09,7.5-7.06,8.78-5.92,3.85,2.46-8.54,4.45-17.16,9.1-24.99,1.93-3.25,10.95-9.87,16.99-5.76,10.55,7.18-2.67,38.05-10.28,50.84l-15.72,26.41c-3.21,5.4-9.99,10.4-15.02,7.09l3.1-11.26Z"/>
              <path class="cls-40" d="M247.57,328.42c-.47,1.92.29,3,1.65,1.23l.97.54c-.09.89-.39,2.34,1.51,2.31-.14-2.58.15-5,2.22-6.58l-1.25,9.05c1-2.02,1.14-4.81,3.88-5.79-1.16,3.44-3.39,5.87-2.17,9.01.54-1.64.65-2.74,1.89-3.54.55,2.09-.21,3.22-.51,4.99l4.47-5.76-1.18,4.99c.95-1.21,1.11-2.89,3.42-3.42-1.2,3.28-2.59,5.65-1.92,9.15l2.75-5.12.47,3.61,1.53-4.08c.24-.65,1.2-1.51,2.52-1.66-1.7,2.84-1.42,5.32-2.18,8.37l-.36,1.46c-.05.22.51.32.71,0,.22-.35.59-.78,1.47-.94-1.43,4.78,3.47,5.36,3.28,9.79l2.15-3.09c.55,1.93-.28,2.61-.47,4.23l2.17-2.48c-.24,2.16-.91,3.82.29,5.73,1.14-.74-.43-2.53,1.26-3.31l.13,8.01c.02.98,1.19.97,1.63.96.95-2.39,2.42.38,2.85,2.2.79,3.27-1,.26.32-1.65.71.84.99,1.69.77,3.51l2.08-2.02c-.23,1.81-.8,2.87-.32,4.43l-1.41-2.07c-.33,1.52-.41,2.32-.89,2.99-.33.45-1.58.7-1.95.19l-1.11-1.56-1.37-.13c-.9-.09,1-3.88-1.63-5-2.44-1.04-3.89-2.42-4.87-5.65-.38.88-2.52,1.94-3.35,1.28-.84-2.79.53-5.73,1.44-8.72-3.39,2.17-2.96,5.52-4.18,9.41-1.24-3.9-1.38-7.12-3.92-9.27.09,2.13.95,3.12-.06,4.62-1.95-2.89-.85-5.31-1.45-9.2-1.43,1.34-.66,2.89-2.01,4.74l-3.18-9.06-2.23,3.53c-.76-3.74.54-6.76-1.18-10.54-1.49,2.24-1.01,4.35-1.46,6.63-1.47-1.26-1.2-2.55-1.56-3.87-1.94.54-2.31,1.15-3.63,2.17l-5.36-7.81c1.07-.09,2.19-.16,2.98-.9.46-.43,1.67-6.22.4-9.13-.38,2.5-.65,4.26-1.53,6.96-4.07-3.15-.41-7.41-6.7-8.63-1.53-.3-2.7-4.94-1.55-5.98,1.87-1.69,3.14-2.15,3.3-5.29.1-1.88-.47-2.98-1.92-4.52,2.22.4,1.29-2.69,2.93-6.41.79,2.06.5,3.47.48,5.28,4.11-.59-.28,4.71.47,11.25,2.59-2.74.83-5.78,2.98-8.94,1.37,4.59-.13,8.93.88,13.47,1.35-4.09.35-8,3.47-10.83-.44,5.21-1.96,9.49-1.29,14.82l2.8-7.75c.22,4.02-1.73,6.89-.45,11.05l1.71-6.21c.55,1.46.91,3.57.4,4.95Z"/>
              <path class="cls-102" d="M372.68,373.9l1.7-4.52c-.04-.41,1.06.14,1.01,1.43,1.57-1.59,1.71-3.52,1.57-6.52,1.92.6,1.64,2.13,1.86,4.3l4.17-2.76.82-2.43c.14-.42.87-.39,1.86-.39.32-1.73.52-2.93,2-3.88l-.37,3.59,2.38-4.36c.51.81.37,1.43.55,3.01l2.08-3.64.49,3.66,2.89-6.68c.74-1.7,1.79-3.11,1.68-4.87,1.57-.72,3.08-1.61,4.51-2.68,1.52.48,2.73-.98,3.63-4.4l1.22-.18c1.15,1.48,2.08,2.24,2.8,2.26.86-3.5,2.52-5.62,4.97-6.37-.26-4.3,2.34-7.72,4.6-2.8-.06-2.35.69-3.77,2.25-4.25,1.75-1.68,3.25-3.41,4.49-5.2-.36-.35-.32-.66.1-.93,2.55-2.84,5.22-8.9,5.5-11.19l1.54-3.3c1.33,4.17-1.41,7.59-2.74,11.62-3.57,10.81-8.21,20.91-15.89,29.37-.37-1.53-.16-2.68-1.11-3.76-2.16,2.08-1.63,4.68-2.26,6.97-.89,3.25-4.18,5.95-6.65,8.29l-2.9-.28c-1.71,4.04-4.53,8.07-8.55,9.45-.49-.63.3-1.8.44-2.13.09-.21-.59-.35-.86-.06l-.99,1.05c-.46.49-1.2,1.42-1.75,1.33-.58-.1-1.19-.9-1.53-1.9-1.13.71-3.06,2.13-2.76,3.74l.66,3.52c.11.59-3.67,4.78-6.2,3.3-1.61-.94-1.74-2.23-1.85-4.59-1.34,1.96-1.63,3.75-3.61,5.31-.52-1.31.15-2.34.6-3.28l-2.38-4.86Z"/>
              <path class="cls-109" d="M221.37,237.84c-5.22,9.04-5.5,9.14,2.31,21.89-.21,3.51.44,6.85-.38,10.29l-.28-8.17c-3.89.1-7.57-2.38-9.05-6.24-3.28-.74-4.52-3.09-5.46-5.68-2.83-6.05-4.19-11.97-1.15-18.28.83-1.73,7.18-9.54,8.29-8.53.82.75,4.71,10.73,5.55,12.89.23.59.3,1.19.17,1.82Z"/>
              <path class="cls-60" d="M444.03,293.81l5.93-22.23c2.24-3.47,4.67-6.88,7.29-10.22l1.16.33c.59.24,1.13.18,1.42.43.25.2.22,1.26.5,1.74,5.29,9.13,1.64,20.76-7.53,26.19-5.54-1.11-5.41,3.28-8.78,3.77Z"/>
              <path class="cls-24" d="M334.23,176.08c.32.18.59.34.88.26.67-.18,1.38,1.43.76,1.6-6.34,1.74-12.98-.71-17.11-5.79-4.67-2.04-8.21-5.18-11.27-9.24-3.95,2.08-8.3,3.25-9.44,1.71-.29-.39-.28-1.23-.19-1.8,5.16-.65,9.86-2.47,14.76-5,5.57,13.67,18.34,12.57,16.4,18.89l5.2-.63Z"/>
              <path class="cls-126" d="M477.87,244.21c.43,2.69-2.14,3.17-4.4,3.59-3.46,3.67-7,7.21-10.61,10.61-.76.86-1.65,1.36-2.66,1.5l-1.79,1.78c-4.73,4.72-5.75,10.11-8.45,9.89l2.09-7.25c.14.66-.45,1.43.43,2.19,4.35-7.43,10.19-13.9,16.85-19.63,2.6-2.23,5.39-3.37,8.53-2.67Z"/>
              <path class="cls-92" d="M413.42,420.98c.78-1.65-1.07-1.92-1.49-2.64-1.73-2.95-1.2-6.93-1.35-10.11l-.47-9.78c1.7,3.05-.62,7.03,2.94,8.71l.13-2.58c.01-.29.76-.77,1.28.06,1.35,5.42.55,11.32-1.03,16.34Z"/>
              <path class="cls-17" d="M210.47,225.77l-4.49-3.58c-2.68-.32-4.91,2.38-5.67,4.85-2.63,8.57-1.18,17.41,3.33,25.08.33.56-.54,1.59-.96,1.52-.81-.14-5.03-10.55-5.38-18.35-.37-8.41-2.46-16.75-.81-24.61.82.28.63,4.43.6,4.19-.4-3.07.59-12.3,4.45-12.13,4.8.21,14.21,15.83,14.62,20.16.1,1.04-.33,1.27-1.34.79-1.63,1.57-3.08,2.26-4.35,2.08Z"/>
              <path class="cls-120" d="M221.37,237.84c-2.87-4.04-4.35-8.44-6.16-13.63-5.88,3.86-9.37,9.88-8.89,16.67l2.2,9.06c-5.44-7.57-4.73-17.18,1.96-24.16l4.69-3.07-4.86-9.69c-2.12-4.23-5.11-7.78-9.66-9.6-3.24,3.35-2.99,7.83-3.4,12.06-1.05-1.69-.52-3.46-.75-4.79.55-2.63,1.11-6.1,3.21-8.13,3.94-3.82,12.27,7.35,14.9,14.04l6.97,17.71c.66,1.67.54,2.27-.19,3.53Z"/>
              <path class="cls-30" d="M460.2,259.91l12.57-13.71c2.1.03,3.58-1.01,5.1-2,2.67.59-3.21,19.94-7.83,27.48l-1.86-17.65c-2.66,3.58-6.09,7.11-7.98,5.87Z"/>
              <g>
                <path class="cls-58" d="M440.21,306.66l.9-2.17c.87,2.28,1.19-1.69,2.14-2.04s2.21.22,3.06.89c1.82,1.45,2.4,3.6,1.74,5.43s-2.97,3.34-5.19,2l-2.65-4.12Z"/>
                <circle class="cls-41" cx="444.74" cy="307.5" r="2.44"/>
              </g>
            </g>
            <g>
              <path class="cls-72" d="M229.52,72.11c.42.55.96.84,1.56.37-.93-2.3.14-3.31.52-4.47.25,2.08.56,4.29-1.2,6.2.77.96,1.25,2.5,3.59,3.02-1.62-4.04-.64-7.73,1.77-11.34,2.15,4.7.49,9.6,1.99,13.99.78,2.27,3.34,3.77,2.11,7.45-.76,2.27-.34,4.99,1.58,7-6.38,3.16-3.81,9.51-7.86,15.67-.73,1.11-3.4,2.94-4.75,2.49-4.35-1.46-4.32-17.41,4-27.24.66-.78,1.63-1.27,1.2-2.3-.76-1.8-5.26.15-6.54-5.65-.55-2.48-.21-4.1,2.04-5.21Z"/>
              <path class="cls-72" d="M214.99,188.47c-.47-.16-.89-.8-.87-1.67l.5-29.64.37,31.31Z"/>
              <path class="cls-72" d="M228.64,69.8c-1.74-1.88-.32-4.54-1.83-4.89.59-1.02.55-2.65,2.7-3.12-1.17,2.96-1.28,5.33-.88,8Z"/>
              <path class="cls-47" d="M346.61,165.85c-1.43,1.05-3.53,1.05-5.3,1.51-.53-1.74-1.33-6.47.8-7.85,8.54-5.55,14.4-13.27,16.56-23.31,2.77,9.94,1.23,19.35-4.03,27.16l-1.87-2.04-6.16,4.53Z"/>
              <path class="cls-72" d="M257.3,128.8c-5.87-3.27-6.25-10.45-2.79-15.73.46-.7.7-1.84,1.14-2.22.52-.45,2.53-.16,2.99.62.22,5.59.03,10.96-1.34,17.32Z"/>
              <path class="cls-78" d="M308.79,147.09c.93,2.43-5.72,6.87-7.77,5.33-.36.02-.81.09-1.52-.26l4.12-5.35c-2.22-.52-1.59-2.2.63-2.05l2.25-9.56c1.97,1.76,3.67,3.42,4.37,5.79.47,1.6-.92,4.94-2.08,6.09Z"/>
              <path class="cls-72" d="M233.77,140.24c2.05,1.31-.56,7.59-1.23,8-.89.54-2.37.39-3.22-.45-2.97-2.91-3.65-6.84-2.76-10.75,2.96,1.03,5.11,1.86,7.21,3.2Z"/>
              <path class="cls-117" d="M299.23,144.48l-4.4-3.98c-1.86-3.27-1.18-7.35,1.21-10.71.72,2.11.92,3.49,2.26,4.77,3.39,2.48,3.44,6.64.93,9.92Z"/>
              <path class="cls-72" d="M301.02,152.43l7.77-5.33c2.08.72,3.19,2.3,2.4,4.67-1.54,4.68-8.66,4.91-9.85,3.12-.43-.65-.48-1.63-.32-2.46Z"/>
              <path class="cls-71" d="M337.37,159.8l1.14,8c-2.45-.77-3.08-2.59-4.4-4.11l1.9-10.32c.11-.61.56-.96.77-1.26,1.46-2.12-.14,2.56.59,7.69Z"/>
              <path class="cls-82" d="M291.17,124.27c.42,3.64-1.16,7.71-1.96,11.97-1.44-4.36-.85-8.48,1.96-11.97Z"/>
              <path class="cls-96" d="M317.66,158.02c.18.88.2,2.09-.73,2.6-.62-1.23-1.96-2.14-3.2-3.28.87-1.57,1.79-2.28,3.08-3.39l.84,4.07Z"/>
              <path class="cls-72" d="M304.25,144.77l-.63,2.05c-.95-.1-1.73.47-3.15-.31-.03-1.68.71-3.3,1.81-4.4l1.98,2.67Z"/>
              <path class="cls-72" d="M328.69,77.42c-1.65.67-2.88-.1-3.44-.45-.7-.43-.48-1.98.25-2.07,1.1-.14,2.27-.25,2.63.05.49.4,1.14,2.24.56,2.48Z"/>
              <path class="cls-72" d="M273.66,137.21c-.98,1.19-2.06,0-2.56-.58-.73-.84-.92-2.93.49-3.32,1.69-.47,2.93,2.85,2.06,3.9Z"/>
              <path class="cls-115" d="M270.12,142.1c-1.86.17-3.75.64-5.23,1.94l-.46-1.03c.6-1,1.62-2.04,2.74-2.13,1.26-.1,2.03.77,2.95,1.22Z"/>
            </g>
          </g>
        </g>
      </g>
    </g>
    <g>
      <path class="cls-129" d="M410.09,398.44c1.07,5.39,1.83,10.77,2.27,16.13.93,2.21,1.28,4.34,1.05,6.4l-.22,2.25c-1.87,17.67-11.3,28.15-26.3,37.89-26.98,17.52-66.06,24.53-97.39,16.96-.5-.12-.94-.48-1.4-.88s-.87-.9-1.25-1.41c-6.99-11.99-12.57-26.46-15.74-40.19,1.15-2.96,3-5.72,5.55-8.28-1.23-4.4-.57-6.54,1.96-6.44,27.64,24.78,51.91,20.58,80-2.06,15.89-12.81,29.8-26.29,42.82-41.43,2.68-3.96,5.82-7.03,9.42-9.19-1.21,10.04-1.26,20.17-.77,30.25Z"/>
      <path class="cls-32" d="M410.87,368.19c-4.43,6.3-9.51,11.94-15.28,17.48l-3.37,4.68c-12.78,13.45-26.39,25.56-41.5,36.36-19.88,14.22-41.16,17.81-61.95,3.89l-11.66-8.88c.41,2.04,1.6,3.72,1.23,5.5-.91,4.43-7.22,5.1-5.3,11.04,3.79,11.68,7.74,22.91,13.37,33.76.76,1.46,1.45,2.55.44,3.78-1.06.44-2.24.92-3.41.71-12.31-2.23-34.71-15.77-42.1-25.87-4.13-5.63-9.14-25.48-7-31.97.54-1.64,1.28-1.94,2.8-.92l2.24,13.62c1.53-6.34,1.33-12.17,1.07-18.55l-2.76-69.21,6.12,8.69,14.42,18.18c4.02,5.07,8.36,9.52,12.85,14.19,13.76,14.33,21.91,21.55,42.59,26.05,12.5,2.72,25.68,1.71,37.14-3.52s25.45-15.2,35.93-23.18l9.47-7.21c1.56-1.19,3.01-1.94,4.23-3.09l5.77-5.39,5.23-4.9-.57,4.77Z"/>
      <path class="cls-1" d="M276.64,134.31c1.84-.39,3.39.93,2.61,2.85,2.66,2.64,6.6,2.98,10.03,4.87,2.98,1.64,5.35,3.49,9.62,2.98-.08,4.06-5.6,6.98-9.31,5.97-1.38-.38-2.61-2.22-4.92-3.32,1.39,8.13,9.31,11.21,17.49,11.26-3.23,2.19-6.82,2.04-10.81,2.45.42.93,1.42.88,1.92,1.39-3.03,1.92-8.74-1.78-11.34-5.42l2.1-1.23c.31-.18-1.05-1.41-1.55-1.28-3.25,3.06-7.11,5.91-8.88,10.17l-4.65,11.2-2.61,13.44c-.3,1.56-.17,3.19.41,4.71l-.39,1.97c-3.89,2.72-6.96,6.13-9.21,10.23,2.45-.16,4.93-.38,7.44-.65,2.78,3.42,5.78,4.05,10.01,4.02,2.24,1.23,1.68,2.49-1.67,3.78l.78.72c8.64-3.8,33.08-6.15,41.14,2.39.14.15.02.54-.17,1,.37,1.75-.52,1.96-2.67.64l-2.45.33c-13.14-7.75-27.02-3.94-39.24,2.82,2.82.44,4.73,2.25,6.66,4.24.39-.59,1.09-1.26,1.61-1.01,3.37,1.64,6.11,3.97,8.89,6.39.77-2.26,4.55-.84,4.24,1.41-2.47,1.41-5.35,1.16-7.96-.18l-9.31-4.8c-1.01,1.95-.57,3.85.2,6.16-1.84-.36-3.1-1.74-4.01-3.08-1.18-1.74-2.25-1.02-3.69-1.46l-12.6-3.88c-3.71-1.14-6.12,3.35-7.03,6.43l-2.75,9.25c-1.65,11.66-1.84,23.04-2.04,34.88-.06,3.8,1.9,6.34,3.17,9.91,1.81,5.08,2.07,11.33,5.9,15.52,3.22,3.53,5.76,6.81,7.06,11.47l4.1,14.74c.84,3.03,2.82,5.27-.35,8.35.9.06,1.2.08,1.69.44-.58,1.33.07,2.27,1.16,2.62,1.13,1.18-.18,5.55-2.44,4.66-3.39,4.35-4.97-.63-3.57-4.17l-.83-.6c-1.59,2.23-5.01,1.65-3.23-.56-1.85,1.58-3.09-.79-2.69-3.01-2.01-1.42-3.84-2.76-2.32-5.14-.76-.58-1.51-.22-2.25,1.09-.87-.52-1-1.47-.37-2.86l-.75-.45c-1.04,4.06-3.37,2.59-3.28-.96-1.08-.16-2.38-2.05-2.19-3.45-2.03-.96-2.82-2.85-2.37-5.68-1.47,1.71-2.36.69-3.56-.81l1.32-9c-1.51,1-2.69.89-3.54-.33.84-4.07,2.5-8.23,2.3-12.82l-2.71,4.22.08-8.82-2.51,5.75,1.5-9.8c-.73.21-1.02.7-1.63,1.78l-1.22-16.51c-.69-19.1.81-38.09,4.68-56.52l-1.09-2.58c-.15-1.21,3.93-19.73,4.62-21.81,1.55-4.64,2.7-7.53,5.73-11.44,2.33-3,10.42-9.7,13.79-11.88l1.73.4,2.59-16.56c1.52-4.22,5.92-8.71,10.67-8.23,3.34,1.65,6.74,4.31,11.32,1.61-7.25-2.46-9.58-11.24-6.41-10.19Z"/>
      <path class="cls-75" d="M330.6,203.66c4.11,2.54,7.66,8.67,2.4,12.7-1.04.25-2.04.89-3.1.39-4.81-.23-9.61-1.48-14.38-3.74-5.23-1.02-9.83-2.89-13.81-5.62l-2.35.93c-7.12-1.95-14.32-3.17-21.62-3.65-6.89.52-13.74,1.15-20.56,1.88-.48.36-1.38.15-1.44-.37,2.87-4.79,6.05-9.62,11.04-11.83,4.62-2.04,10.29-5.88,16-5.58,13.07.68,45.43,9.19,47.82,14.88Z"/>
      <path class="cls-55" d="M368.67,334.61c-12.57,12.35-21.48,15.63-39.13,13.28-14.2-1.89-25.99-9.11-34.5-20.75-1.39-1.9-3.45-3.41-3.59-6.02l1.68-.46c12.53,4.18,25.04,7.96,37.55,11.37,12.24,1.64,24.55,2.24,36.95,1.78l1.04.81Z"/>
      <path class="cls-5" d="M314.7,217.83c.7-1.11,1.34-.38,1.58.79,2.16-.32,3.62,1.72,4.39,6.13,2.2-.27,3.37.76,4.86,2.18,2.24-.89,3.92.1,5.05,2.98,6.76-.88,6.78,4.68,5.84,9.91l1.09,1.02c-.48,7.93-1.87,15.55-3.7,23.96-4.99,3.71-7.85,10.62-4.91,16.79,1.35,2.85,4.43,4.5,6.55,6.37-.8,1.43-2.26,1.53-4.39.29l-4.07-2.12c-5.24.65-9.65-.29-13.23-2.79-2.14.66-2.79-.84-1.94-4.5-.63-.84-.42-1.93.61-3.26l4.3-5.57c.31-5.82,2.54-11.33,3.96-17.19l.54-12.71c-1.93.8-2.42,1.69-3.99.93,2.39-1.34,2.92-2.56,2.15-4.69,1.56-.52,2.82-1.06,3-2.98.13-.48.15-3.6-1.85-2.83l-1.18-.18c-1.92-3.67-4.35-6.93-7.28-9.77l-.04-2.12,2.67-.64Z"/>
      <path class="cls-6" d="M322.01,299.62c2.55,2.65,9.25.18,12.02,7.91-.36,2.6-2.36,4.76-3.35,6.5l-.66,2.05c-5.39-.21-10.49-.64-15.28-1.29-4.22.42-8.36.66-12.42.74l-2.49-1.55c-2.99.61-6.02,1.09-9.09,1.46l-1.85-1.88c-2.08,1.66-6.15,1.57-8.89,1.29-1.86.9-3.83.9-5.42,3.67-1.77-7.87,3.95-14.1,11.24-15.66,1.99-.43,3.78.04,5.8-1.82.34.72,0,1.77.37,1.77s1.63-.84,1.92.26c-.26,1.14-2.65,1.15-3.39,2.5,3.47-.49,5.61-2.24,9.19-3.62.29.57.26,1.12.17,2.13,2.57-2.81,5.13-2.36,7.88-3.07,1.88-.48,2.41-.68,4.17-.3,1.61.33,3.94-2.51,6.53-1.24-.52.34-1.3.91-1.71,1.89,2.37-.21,3.75-1.01,5.27-1.74Z"/>
      <path class="cls-114" d="M351.82,306.18c2.16.71,1.74,3.34,3.59,3.24.57-.03-.12-.93-.14-2.3,1.54.8,2.27,2.12,3.13,3.63l3.04-.43c3.02,2.24,5.44,4.55,7.78,7.49.9-1.38-.1-2.1-.57-2.77,3.01-.29,4.81,1.74,6.3,4.03,5.38.81,7.53,1.82,10.93,6.59,3.27,4.59,1.97,11.14-1.81,14.89l.41-4.02c-3.23,1.81-1.22-1.76-4.52-4.88-1.73.71-3.38.07-4.98-1.93-1.8-.29-2.71-.97-2.73-2.03l-1.48,1.19c-4.23-1.67-8.53-3-12.9-3.98l-1.68-1.59c-3.95-.8-7.65-2.19-11.07-4.17-2.36.53-3.76-.03-4.2-1.69-1.88-2.14-3.74-5.59-2.22-8.69s9.6-3.8,9.92-3.62c1.13.64,1.88,1.17,2.83,3.24.52-.58.36-1.52.36-2.19Z"/>
      <path class="cls-113" d="M429.25,318.11c.45,1.78-1.62,6.37-3.29,7.19-.1.21-.14.7-.1.93-1.48,1.59-2.59,3.36-3.33,5.32l-1.16-.11c-.57,2.61-.11,5.37-2.51,7.98l-2.35-5.63c-.15,4.74-.67,8.32-3.14,11.71.06-2.32,1.36-3.75.38-6.15l-4.13,9.23-.65-2.8c-2.49,3.24-.9,6.15-3.54,7.3l1.71-10.05-6.2,14.11c-.78,1.56-2.2-.24-.62-.81,1.04-3.04,2.09-5.66,2.33-8.66l-4.2,6.96.46-3.4c.12-.86-.64-1.4-1.53-1.35-.34.02-1.28.15-1.42-.17-.79-1.94.46-5.2,2.31-6.66,2.99-2.37,4.81-5.26,6.91-8.29,3.17-4.59,8.67-6.76,12.4-10.59,3.91-4.03,6.38-8.8,10.64-12.62,2.12-1.9,2.31-6.12,5.98-7.13l-5.56,11.65c-.38.81-.03,1.65.62,2.07Z"/>
      <path class="cls-42" d="M329.89,216.75c-.87.53-.9,1.27.27,1.44,1,.1,3.81-.1,4.42.96,3.95,6.81,3.38,14.4,2.94,21.68-.6.18-1.17.83-2.75.69.62-2.39,1.81-5.98.36-8.46s-5.21-2.05-7.52.14c.25-1.47,1.43-3.75.18-4.98-.54-.54-2.51.77-2.98.33l-2.25-2.16-2.83-.08c-1.31-.04-.52-3.91-3.45-7.69-.05-.38-.25-.65-.52-.91-7.31-7.21-19.81-6.81-29.41-6.41l-.5-.6c-.73-1.21-.61-2.17.76-2.37,5.13.08,10.16-.23,15.09-.93,9.64,2.39,19.12,5.43,28.19,9.35Z"/>
      <path class="cls-118" d="M289.67,317.42c1.79-1.24,3.56-.64,3.29,1.72,13.47,3.14,27.12,6.68,40.94,10.61,12.14,1.37,24.33,2.09,36.56,2.17l.42-1.83c1.32.43,2.73.79,4.22,1.08,2.33.65,2.36,1.84-.06,2.03l-6.37,1.43c-6.59,1.56-13.43.38-20.53-.11l-17.69-1.24-20.24-5.99c-6.54-1.94-12.75-3.61-18.76-6.14-1.19-.5-2.26-2.3-3.99-2.16-6.85-3.36,1.17-7.26,2.2-1.55Z"/>
      <path class="cls-34" d="M425.96,325.3l3.29-7.19,2.21-4c.53-.13.84.27.75.49l-.69,1.82c-1.44,3.8-3.56,6.81-4.24,10.53l-1.33-1.66Z"/>
      <path class="cls-98" d="M301.7,207.39c-.59.77-2.58.31-2.63,2.36l-11.68.07c-.85,0-1.44.29-1.54.87-.16.33-.33.61-.56.68-2.98.92-8.63,2.58-11.52,3.12-.21.04-.5-.31-.8-.78.51-.61,1.38-1.1,1.83-2.48-4.36.41-7.53-.06-10.2-3.25-2.46-2.96-5.82.84-7.42-1.43,18.86-5.92,27.62-3.36,44.53.84Z"/>
      <path class="cls-64" d="M285.84,210.69l15.55.28c5.1.09,16.23,4.79,14.89,7.64-.34-.44-.96-.93-1.58-.79-.6-1.14-1.78-1.97-3.24-2.61-13.39-5.91-28.37-4.82-41.47,2.05l2.96-3.55c4.46-.8,8.49-3.1,12.89-3.02Z"/>
      <path class="cls-116" d="M250.19,330.19c-.33-.11-.89.1-.91.74l-.27,7.12-1.21-.03c-.31-2.11.62-4.48-.71-6.54-.27,1.53.23,2.85-1.18,3.85-.69-3.26.91-4.91,1.65-6.91-.03.74,0,1.37.46,1.88.42-.98.7-1.23,1-1.59s.86-.26.97.21c.09.39.23.98.2,1.26Z"/>
      <path class="cls-89" d="M425.86,326.23c.11.56.4,1.88-.26,2.52-.33.32-1.3.02-1.61.95-.16.47-.27,2.37-.73,2.65-.42.25-1.3-.7-1.89-.91l2.51-4.32c.03-.54.36-1.7.84-1.8.36-.08.88.7,1.14.92Z"/>
      <path class="cls-15" d="M330.69,314.03c-.32.55-.42,2.29.16,2.78,2.91,2.48,7.16,2.54,10.08.62l4.23.27c.23-1.54,1.72-1.1,1.26.39,4.58,3.11,11.59,2.76,11.94,5.21.04.29,1.05.6,1.13.34.16-.56,0-1.6.86-2.69l1.22,3.87,1.33-1.93c.74,1.7,1.99,2.35,3.7,2.91l5.67,1.87-.85.81c-2.63,1.95,3.08,1,3.69,2.67-1.68-.13-3.16.18-4.64.76-2.28.32-4.83.46-7.08-.11l-16.77-7.27c-7.19.85-13.88-.17-20.08-3.07,0,0-3.43-.64-10.28-1.92-7.92.95-15.69.82-23.29-.41-1.1-.69-2.3-.7-3.29-1.72,1.58-1.38.2-2.7-.77-3.86,2.05.81,3.95-.29,6.08-.42,2.6-.17,4.49.2,6.48-2.71.8,1.55.29,2.41.4,3.14.09.61,1.71.66,2.47-.12,4.17.42,7.64.69,11.19-.56,2.72,2.25,6.25.38,8.97,1.04,2.34.57,4.04,1.48,6.19.1Z"/>
      <g>
        <path class="cls-11" d="M335.44,287.95c6.18,1.8,12.46,2.91,18.91-.32l7.16,3.34c.88.41,3.09-.15,3.77.61.41.46.64,1.23.89,1.99,1.24,2.56-3.97,5.43-6.39,6.17-5.32,1.64-4.96-.75-.3-.03.22.03.38.43.53.94-1.67.66-3.4,2.56-5.88,2.93-1.48.22-2.3,1.46-2.31,2.6,1.87,3.87.5,4.05-4.09.55-4.66.01-7.33,1.5-7.99,4.48.99,2.32,1.38,4.4,1.19,6.23.83,2.6-2.75,2.99-4.84,2.94-3.76-.1-10.01-3.08-5.4-6.34-.56-.47-1.05-1.16-.76-1.78,4.57-5.27,1.92-8.84-7.97-10.69l.06-1.95c-2.81-2.93-11.28-2.82-14.49-12.04-.54-1.55.51-2.33,1.4-2.9h1.13c-.36-2.85.22-4.8,1.75-5.84l.24,3.88c1.4-.97.95-1.95,1.31-3.03,3.28,8.16,11.82,2.59,16.18,5.83,2.19,1.63,3.84,1.84,5.91,2.44Z"/>
        <path class="cls-100" d="M316.72,270.01c-.08,1.46-2.85,3.31-4.92,8.83-2.11,5.65.3,11.69,6.11,14.54-5.23-.07-7.46-4.65-8.99-8.7.15-5.47,2.94-11.62,7.8-14.67Z"/>
        <path class="cls-25" d="M328.16,292.43l-10.44-3.26c5.6-3.08,11.57,1.15,14.13,5.79-2.2.42-2.72-2.22-3.69-2.53Z"/>
        <path class="cls-25" d="M348.49,297.67c-4.83,3.06-10.57,5.08-15.14.41,6.12,2.78,10.47,2.12,15-1.77,2.93-2.51,7.91-3.85,11.22-1.01l-11.08,2.37Z"/>
      </g>
      <g>
        <path class="cls-36" d="M312.03,218.46c4.08,3.22,6.22,7.72,8.5,12.07.33.97.62,2.53.18,3.39-2.53.57-3.83-1.89-2.98-4.2l-1.9.06-6.33-7.08c-.39,4.92-2.24,10.19-7.8,10.28-2.89,1.46-6.98.65-9.96-.34l-4.24-1.41c-4.48-2.23-5.24-5.71-5.12-10.41l-5.15,2.03c.85,1.12.85,1.95-.24,3.01l-5.56-2.28c-1.73-.71-3.36-.31-4.66-2.18l15.08-6.81c10.35-3.11,21.57-1.99,30.18,3.88Z"/>
        <path class="cls-97" d="M317.73,229.72c.72,1.68,1.17,2.92-.72,3.66l-15.21.24-.09-.64c4.57-2.31,6.79-7.37,6.02-13.04,5.11,2.16,7.4,6.11,10,9.78Z"/>
        <path class="cls-91" d="M287.49,231.23c-5.86-1.94-7.54-4.17-10.5-5.38-.42-1.19-1.17-2.09-2.36-3.7l10.36-4.08c-2.13,5.21-.44,9.76,2.5,13.15Z"/>
        <path class="cls-48" d="M293.9,227.71c4.72,1.97,6.99-4.15,8.7-3.15.89.52,2.67,2.39,2.23,3.37-2.02,4.58-6.46,4.71-10.82,4.1s-8.54-2.95-7.78-7.72c.24-1.35,4.5-1.53,5.16-.24.83,1.62,1.35,3.15,2.5,3.63Z"/>
        <circle class="cls-35" cx="300.35" cy="221.13" r="2.29"/>
      </g>
      <g>
        <path class="cls-123" d="M293.28,162.76l4.58.06c.84.75,1.69,1.1,2.57,1.04l7.48-2.22c3.37,3.88,7.3,6.97,11.79,9.25,3.73,4.46,10.47,7.41,14.67,6.4l-.14-1.22c.15-.99.09-2.06-.29-3.27.95-.48,1.54.17,2.06.27,1.78.64,3.73.88,5.84.71-.12,1.03,1.17,1.45,3.87,1.27,3.01,2.49,6.13,3.36,9.37,2.62,3.29-1.46,6.48-2.15,9.57-2.08.32,2.41,1.61,2.59,3.87.54,2.04.12,5.23.57,7.01-.53,1.3-.71,2.94-.69,4.9.03,7.51,2.23,14.93,1,22.28-3.68,5.43.91,10.66.72,15.69-.56,8.25-3.23,16.71-5.34,25.39-6.33l7.37,7.36c.89,2.46,1.1,5.19.6,8.17l-1.39,8.27c-.43,1.78-.14,3.06.87,3.86,0,4.71,1.79,9.41,5.37,14.11,1.78,3.47,1.99,6.93,1.82,10.74-.12,2.78-.37,8.11-3,9.03-3.63,22.76-8.77,45.25-16.05,67.43l-6.37,16.75c.13,2.15-.39,3.25-1.54,3.3.36.95-.9,3.94-2.21,4-2.58,1.58-2.73-1.54-1.68-3.73l-9.33,11.34c-6.42,4.14-11.7,9.29-15.82,15.48-3.7,2.67-5.38,5.56-5.04,8.66,2.02,1.03-2.42,11.61-3.17,12.01-3.05-.24-6.89.93-9.25,3.12-.93,2.85-4.14,4.71-7.02,4.83-.35,1.24-1.29,1.94-2.8,2.07-.38,1.41-.74,2.26-2.46,2.02l-3.77,5.12c-.81-1.74.46-2.63.37-3.45l-1.1-.37-1.56,5.09-.73-2.62-2.32,4.73c-.4-1.73-1.72-1.31-1.45.13.09,1.82-2.2,2.18-1.62-.53-1.95,1.87-2.74,4.79-5.7,6.21-.58-1.1-1.68-1.96-2.35-1.52-.44.29-.58,1.07-.57,1.7-.89,1.41-2.45,2.06-4.69,1.94-1.16,5.41-5.11,3.83-4.85-.99-1.35.11-2.27.03-2.76-.23-3.28,3.73-4.32-2.87-3.45-3.59,1.38-1.15,1.36.71-.85.55.08,3.37-3.15,5.26-4.03,1.39-1.76,1.43-3.35.78-3.85-1.46-1.28,5.42-5.48,5.49-5.13-.68-3.42,6.22-7.51,3.42-5.35-2.76-1.53.23-2.57-.62-3.05-2.1-.97,1.97-2.22,2.07-3.96.61-.86,1.5-2,2.18-3.44,2.03-2.65-2.5-4.71-2.67-6.16-.52-1.27,2.99-5.24,6.24-4.24,1.32l2.67-5.83-5.48,1.95c1.2-1.54.13-2.62-.94-1.62-2.5,2.87-.32-2.2-3.16-3.41-.66-.28-1.48.5-2.91,1.75.41-1.98-.1-2.38-1.5-3.56,1.07-1.48-.74-2.07-1.17-.61-.21-1.18-1.16-1.94-2.85-2.29,1.14-1.04.83-2.39.32-3.64-1.14-.62-2.2-.8-3.17-.55-.05,1.71-1.1,1.51-3.14-.6-.11-3.11-1.19-6.06-3.25-8.86-1.71.53-2.48-.46-2.31-2.97-1.88-.45-3.01-3.07-3.62-4.97-3.12-.71-.42-8.12.73-9.92,1.49-2.35.96.4-1.02.26-2.66,2.19-4.09-3.45-2.83-5.77-1.7-8.93-4.4-17.57-8.1-25.94-3.58-4.18-5.92-7.1-7.8-12.29-2.12-5.84-4.06-13.06-5.6-19.05-.1-11.79.79-23.47,2.07-35.18.51-4.7,4.2-15.9,9.21-17.05,1.32-.3,15.19,3.47,17.24,4.31,1.13.46,2.01.92,2.63,2.01.23-2.31,1.17-3.5,2.82-3.58,5.43,3.78,11.03,5.84,16.81,6.16,1.11-1.17,2.97-1.33,5.57-.47,1.99-.47,3.46-.2,4.39.81.71.04.73.25.09.64,5.88.33,11.74.16,17.59-.53l1.32.84c-.79-1.65-.85-2.78-.18-3.39.89-1.88,1.78-1.82,2.95-.18,1.63,2.28-.16,5.84-2.19,7.36,3.22,7.86.5,17.66-1.9,25.8-.12,2.94-1.01,5.1-2.67,6.5-3.72,3.95-6.74,8.54-6.71,14.16l-1.08.51c.05.84-.03,1.7-.24,2.57,2.51,5.09,6.97,8.54,13.37,10.36l-.05,2.01c.46,3.07-4.88,4.27-6.65,1.62-3.77.8-7.64,1.52-11.61,2.16-2.13,1.64-3.79,1.86-4.99.67l-4.7,2.19c-2.78.97-4.72,1.41-4.09-2.45-6.96,1.25-12.91,2.93-14.09,10.96,1.76-1.16,3.13-1.14,4.12.07l3.37-.12c1.13,1.67,2.5,3.09,4.09,4.25.65-2.08,4.8.47,3.99,2.16l3.09,2.92c14.84,22.56,49.54,32.15,70.15,12.34l3.98-1.77c-.36-1.63,5.46-3.13,6.37-1.43,1.04.25,2.07-.4,3.1-1.96l1.83.41c1.83-.82,3.07.34,3.7,3.47,2.43,1.71,2.62-2.01,2.46-4.11-.45-6.03-6.3-10.01-11.95-10.64-1.81-3.13-3.49-3.64-5.05-1.53-2.78-2.03-5.46-4.32-8.05-6.86-2.02.42-3.73.47-4.74-1.6-3.4,1.48-4.26-1.65-4.52-4.19-.61-.28-1.17-.71-1.33-1.39-.56-2.43,7.79-3.93,9.52-4.13.32-1.09,1.43-1.97,3.32-2.64,1.39-1,5.31-4.42,2.84-4.44-4.02-.67-7.94-2.15-11.77-4.44-3.09,2.02-7.07,2.27-10.69,2.09-2.66-.13-7.78-.45-8.27-3.26-11.78-3.84-12.07-16.83-2.98-23.88,1.4-6.76,2.48-13.57,3.24-20.42l1.81-2.82-1.02-.79c.31-4.77-.15-16.36-3.13-19.96-3.17.23-8.27-2.22-3.47-3.33.53-1.86,2.08-2.2,3.1-.39,5.12-4.16,1.86-9.71-2.4-12.7l-1.8.14c-11.32-7.07-27-10.95-40.3-12.8-8.3-1.16-12.78.04-20.08,4.36l-1.65-.99-1.83-.52c-.06-10.3,3.59-25.86,10.1-34.03,1.64-2.05,8.98-9.72,10.27-4.68.25.99-.14,2.03-.93,2.67,2.38,2.57,5.72,4,8.9,4.97Z"/>
        <g>
          <path class="cls-4" d="M351.88,388.4c.89-.02,1.99.21,3.32.75.41,3.72-.86,7.35-3.8,9.47-1.14-2.23-.46-4.14-.18-6.53-1.87.48-1.45,2.73-2.02,3.55-1.83,1.46-4.05.4-4.88-1.85-1.51.52-2,2.25-3.45,3.42-1.58,1.28-4.38-.49-5.48-2.06-.85,1.2-.96,2.47-2.61,2.57,1.74-3.15,2.56-6,1.13-8.89-.93,3.28-.95,6.22-3.19,7.93l-.13-2.5c-.02-.31-.66-.69-.98-.07-.13.25-.35.69-.99.91-.26-.24-1.24-1.47-1.71-1.23-.53.27-1.09,1.4-1.6,2.39-1.13-1.37-.83-2.96-.59-5.11l-3.49,5.46c-1.24.62-4.23.94-5.6.87-1.88-1.59-4.26-1.48-6.49-2.39l-2.12-2.85c-.9-1.2-1.97-.32-3.68.3-2.69.99-5.97-3.48-5.47-6.73-1.67.96-.89,2.5-.95,4.13-1.71-1.98-1.79-4.03-.86-6.06.08.79-.35,1.6.8,2.32,1.14-4.65,3.33-6,6.63-7.66,1.72-.86,2.68-5.03,5.96-4.09-2.63,2.09-5.04,3.45-5.29,6.71,1.79-1.58,2.6-3.14,4.88-4.22-.42,2.2-1.95,2.96-2.68,4.4l.6.68c1.97-1.96,3.19-4.4,6.07-6.03-.5,2-2.16,3-1.52,5.22,1.48-2.42,2.83-4.44,5.47-5.98-.73,2.65-1.88,4.41-1.14,6.42l2.92-4.5c.52-.8,2.67-.73,4.12-.36-3.42,3.39-5.63,6.74-4.78,11.1,5.82-4.99,3.3-10.62,7.53-14.33-.64,5.57-2.43,10.17-1.44,15.65,2.69-3.81,2.11-7.96,2.71-12.96,3.49,3.22,1.34,7.09,2.4,11.01,2.7-3.43.82-7.1,1.45-10.48,2.93,3.86,1.48,8.02,2.35,12.3,1.1-2.55.35-5.04.56-8.25,1.77,1.29,2.02,2.88,2.85,4.49l-.24-5.26c2.42,3.19.99,6.3,1.56,9.8l1.39-7.36,1.93,6.06c1.66-1.59.64-2.76.54-4.42,2.19,2.49,2.48,5.33,2.45,8.97,1.97-2.1,1.61-4.4,1.56-7.52.69,1.25,1.87,2.87,3.22,3.24.35-.2.96-1.29,1.53-.69.36.38.7.27,1.44.25Z"/>
          <path class="cls-14" d="M440.46,231.61c1.34,6.51-1.27,6.88-7.84,1.08-6.72-4.02-14.51-6.17-22.33-6.27l-1.7-1.56c-3.24-.46-7-.38-10.31-.16-.2.01-.38.44-.54.98-9.15.06-18.3-.09-27.46-.44l-.89-1.68c-1.39-4.62.73-9.65,5.79-11.23l5.47-1.7c14.38-2.25,28.75-1.61,43.1.51,6.61,3.55,11.63,8.7,15.15,15.21l1.56,5.25Z"/>
          <path class="cls-26" d="M408.58,224.86c10.34-.45,23.64,3.57,31.36,11.63.68-2.04.29-3.4.51-4.88,1.56,1.89.47,4.01-.53,5.68,1.35,1.68,4.29,4.31,2.38,7.31-2.45,3.85-7.04,5.8-11.5,6.58-8.6,1.49-14.18,7.1-15.81,1.6-.39-1.31-1.6-1.76-2.6-1.65,2.83-2.24,6.67-3.46,10.24-4.39-4.81-5.92-10.6-10.38-17.35-13.4-3.37-.56-6.02-1.75-7.95-3.57-1.21-.91-.77-1.11.68-1.21,2-.27,2.4-.59,1.19-.97-1.13-1.21-1.51-2.17-1.16-2.88,3.55-.25,7.06-.2,10.53.16Z"/>
          <path class="cls-88" d="M369.38,223.57c2.56.25,6.4.43,9.61.45l27.91.12c.78,0,1.39.42,1.68.73l-10.58.46,6.55.77c-1.74,1.04-3.68.41-5.35,1.5-1.67.41-2.06.73-1.19.97l-.68,1.21c-6.33-.71-12.49.8-17.5,4.71-1.52-2.32-3.2,3.34-7.23,1.46l-5.05,4.85c-2.24-1.86-2.74-4.56-4.56-7.74-4.03,8.03-4.66,16.13-5.58,24.61-.12,1.06.09,2.14-1.68,2.3l2.71-19.8c.94-6.87,4.48-14.16,10.94-16.59Z"/>
          <path class="cls-61" d="M322.95,360.88c-.39-.31-.52-2.15-.84-1.98l-2.45,1.31c-.2-1.17.69-2.35,1.39-3.59-1.19.01-1.63.67-2.46,1.13-1.59-3.73-3.74-6.45-7.76-8.48,1.66-2.1,3.3-1.33,5.25-.96l26.36,4.98c-1.41,2.43-3.75,3.24-6.19,5.48-.62.1-1.17-1.02-1.35-2.68-1.32,2.11-2.34,4.42-5.3,5.49-1.78.64-4.57.93-6.65-.71Z"/>
          <path class="cls-5" d="M317.8,237.75c-8.8,4.57-19.46,7.11-29.9,3.93,6.87-.91,12.96-1.37,19.41-3.29,3.32-.31,6.04-2.65,10.48-.65Z"/>
          <path class="cls-122" d="M360,300.65c-1.5-.27-3.16.21-5-.58,4.61-1.02,9-2.35,11.17-6.51,2.91-5.58.85-11.16-2.4-17.53,4.55,3.59,6.29,10.24,5.04,15.82-1.14,5.06-4.78,7.2-8.8,8.79Z"/>
          <path class="cls-28" d="M320.7,233.92c-.68,1.31-3.1.4-4.51.43l-12.95.22c-.77.03-1.5-.14-1.46-.95,8.14-2.05,14.75,1.81,15.94-3.9l2.98,4.2Z"/>
          <path class="cls-95" d="M332.99,216.35c3.74-7.22-.52-8.24-2.4-12.7.36-.77,1.05-1.23,1.49-.65l1.4,1.83c-.6,1.36.92,2.69,1.43.34,2.01,2.5,2.23,6.05.99,9.34-.59,1.57-1.84,1.58-2.91,1.84Z"/>
          <path class="cls-83" d="M288.9,313.55c3.54.68,4.53,4.33.77,3.86-.97-1-2.58-1.72-4.19-1.15l1.98,2.69c-3.3.27-4.12-3.57-7.46-4.12,2.83-1.36,5.71-2.55,8.89-1.29Z"/>
          <path class="cls-50" d="M375.96,239.39c2.01-.27,2.04,1.03,1.85,2.76,3.51.64,6.25,2.15,8.21,4.51.82.28,1.48.43,1.7,1.54l-3.39-.58-11.79-4.24c-.86-.31-.96-1.84-.53-2.57.29-.49.73-.82,1.37-1.32.75.89,1.72.33,2.57-.1Z"/>
          <path class="cls-74" d="M379.97,331.63l-3.61,3.68c-.59.6-1.74-1.46-1.32-2.12s.31-1.35.06-2.03c-4.51-.07-6.26-1.2-5.23-3.39l2.39-.09c2.89.95,5.44,1.81,7.71,3.96Z"/>
          <path class="cls-34" d="M281.06,366.62c.01,1.07.5,2.42-.54,3.43.09-2.12-1.21-4-2.63-3.98.21-1.05.37-2.02,1.21-3.49.49,1.49.98,2.87,1.96,4.04Z"/>
          <path class="cls-59" d="M399.21,227.59c10.55,2.21,22.26,6.42,25.9,16.74-6.66-9.79-15.81-13.81-27.09-15.77-6.85-1.19-13.17-.14-19.94,2.95,3.16-4.83,15.66-5.07,21.13-3.92Z"/>
          <g>
            <path class="cls-119" d="M397.34,229.77c9.22,1.03,17.32,5.71,23.63,13.01,1.52,1.75,2.89,3.32,5.45,4.38-2.64,2.18-6.7.98-14.03,3.97-1.2.49-3.15.32-3.93-.58.6-1.45,2.03-2.27,4.28-2.47,4.38-1.02,3.37-3.62-3.05-7.81-1.16,6.1-3.99,9.32-8.51,9.67-1.27.15-3.16.94-4.68.43l.38-1.79c5.13-1.7,6.18-3.2,3.14-4.48-2.69,2.13-6.27,2.5-9,.23-3.92-4.13-4.06-.35.51,2.25,4.24.29,8.27,3.7,1.56,3.29l-5.36-1.67c-.9-.4-1.47-.92-1.7-1.54-2.95-1.81-3.99-4.81-3.13-9-2.77,2.12-5.08,2.7-6.92,1.74.09,2.81-2.64,3.04-2.57.1l6.45-5.02c.44-2.57,2.7-4.15,6.79-4.74,3.94-1.24,7.51-1.23,10.71.04Z"/>
            <path class="cls-44" d="M408.46,250.54c-2.46.14-5.11.48-7.28-.6,4.63-2.39,6.8-7.26,6.75-12.49,4.74,2.32,7.5,5.35,10.42,9.11-3.04,2.62-6.39,3.77-9.89,3.98Z"/>
            <path class="cls-104" d="M396.5,250.37c-1.34.39-2.21-.12-3.42-.5.83-.05,2.11.19,2.71-.92-4.11-.19-8.59-1.51-9.33-5.79-.25-1.43,2.69-2.81,3.84-2.7,1.1,2.6,2.68,3.91,5.01,3.82,1.96-.08,3.55-.92,4.94-2.7.59,1.37,1.86,2.63,2.74,2.22.71-.33,1.05-2,2.9-2.24-.51,4.83-4.93,7.52-9.39,8.81Z"/>
            <path class="cls-52" d="M386.02,246.66l-9.98-3.44c.33-1.71.3-2.67-.07-3.83l9.57-4.87c-1.79,4.32-1.52,8.37.49,12.14Z"/>
            <circle class="cls-31" cx="399.76" cy="237.54" r="2.19"/>
          </g>
        </g>
      </g>
      <path class="cls-83" d="M370.46,331.91c-5.53,2.16-11.71,1.5-17.94,1.01l-15.72-1.23c-6.75-.53-12.83-2.82-19.21-4.62l-21.73-6.12-2.89-1.82c.7-1.48,2.22-.31,3.33-.35l16.57-.59c7.8-1.04,14.07,1.41,21.01,4.66l13.11.15,12.88,5.55c3.6,1.55,6.94,3.26,10.6,3.36Z"/>
    </g>
  </g>
  <g>
    <path class="cls-86" d="M231.62,398.51l4.13,4.07c-.45,3.48-3.01,6.8-6.31,4.07-4.16,4.08-8.31,8.17-12.44,12.25l-8.11,3.13c-17.27,11.89-35.5,23.05-54.69,33.48-25.72,12.62-51.34,24.78-76.88,36.47-6.68,3.78-13.13,7.86-19.38,12.21,0,.68-.09,1.3-.44,1.69-7.25,8.08-12.39,14.4-17.43,24.22-10.62,20.72-18.47,44.76-23.09,67.45-1.27,6.22-1.49,11.8.39,17.95-1.71,11.52-4.28,22.91-7.73,34.16-.88,11.46-1.06,22.96-.52,34.5l-2.3,78.02c-.56,39.8,2.99,80.11,9.4,118.25l1.83-5.98,1.85-.62c2.42-2.45,3.62-5.89,4.42-9.18-.34-.16-.65-.35-.87-.61-.45-.52,3.39-8.38,5.61-7.07,3.43-4.57,8.93-2.92,4.62,1.67-4.27.1-2.53,4.82-3.63,6.93l.55,2.39c-4.86,8.78-11.39,22.94-8.81,33.14,3.74,14.82,33.34,24.2,47.16,23.77l1.74,1.64c-.5.77-.67,1.79-.64,2.95,2.01-.32,2.99.41,3.39,1.56-16.71,1.73-33.46-2.48-46.93-12.73-8.4-6.4-13.39-14.89-15.44-25.34-6.28-32.07-9.43-63.93-10.7-96.64-1.06-27.27.35-53.58.75-80.86l.69-47c.22-14.82,1.8-28.72,6.59-42.62,1.57-4.55,2.34-9.25,1.34-13.88-1.92-8.9.34-16.6,2.61-24.96,4.63-17.12,8.7-33.81,16.31-49.89,10.86-22.98,22.6-40.52,46.32-51.61l44.53-20.83c25.84-12.09,50.84-24.92,74.54-40.8,6.8-4.55,12.11-9.97,20.7-11.05,4.4-6.62,9.9-11.87,16.85-14.29Z"/>
    <path class="cls-76" d="M418.2,384.85c4.96-.36,10.13,1.55,14.14,4.98l9.05,7.74c7.86.26,14.32,3.97,19.77,9.8,21.5,7.66,42.89,13.87,65.04,19.85l48.95,13.21c23.86,6.44,42.21,19.05,56.39,39.3,13.69,19.56,24.49,40.74,32.94,63.17,3.93,10.44,5.02,21.15,6.98,31.93,1.04,5.71,2.37,10.34,6.15,14.72,12.55,14.58,2.61,32.9,3.94,39.88l9.06,47.56c4.07,21.37,7.26,42.04,6.54,63.89l-2.55,78.09-2.95,54.07c-.47,8.58-.57,17.6-5.55,24.57l-3.28,4.59c-1.45,3.47-4.93,5.69-7.49,7.71-1.95-1.16-3.8-2.08-5.97-2.41l.63-2.26c7.48-5.74,13.23-11.78,9.55-21.31-.1-4.37,1.12-10.35,6.09-9.86l.18-1.93c-.84-1.88-.74-2.89.32-3.02-1.12-1.62-1.05-2.38.22-2.28-1.88-7.16-1.2-15.67-.54-23.12-.39-3.41.28-5.67,2.02-6.76l-1.22-5.98c2.98-34.52,3.95-69.07,2.91-103.65-2.19-28.03-6.33-54.99-12.42-80.86l1.01-3-1.74-.53c-1.54-4.57-1.98-9.09-1.32-13.54l-.93-.4c.52-7.06,1.48-14.09,2.86-21.08.14-6.5-2.3-12.38-7.34-17.64l-2.93-6.33c-2.95-11.88-5.57-23.8-7.85-35.74-12.2-30.85-26.99-65.24-53.55-85.84l.03-1.91c-4.65-1.63-9.16-3.83-13.51-6.6l-8.93-3.63-95.29-26.84c-8.53-1.88-16.33-4.98-23.41-9.3-1.35,1.95-4.37.47-3.95-1.87l-2.15.53c-3.74-2.2-6.43-4.85-8.09-7.96-1.4.31-3.65-.67-4.92-1.61-.03.78-.5.79-1.38.03-.54,1.84-2.08,1.95-4.62.33-5.86-5.04-12.08-9.65-18.64-13.81-.76,2.14-5.19,1.34-5.69-.69.13-1.49.99-2.32,2.56-3.11-1.11-.05-2.21.64-2.66-1.41,1.73.7,2.42.4,3.56.32Z"/>
    <path class="cls-29" d="M70.7,926.5c-18.51-.33-42.96-7.38-50.43-25.01-1.62-15.2,3.54-23.92,9.79-35.93.94.27,1.63.65,2.06,1.65,5.04,11.99,10.38,23.4,17.43,34.3,4.85,7.49,10.23,14.16,18.16,18.48,2.42,1.32,4.45,4.27,2.99,6.51Z"/>
    <path class="cls-80" d="M684.05,869.85c1.84-.98,2.02,2.47,1.58,4.2l-3.83,4.03c-2.34,6.95,1.82,12.09.49,14.85-2.9,6-7.27,11.32-12.93,14.54-7.18,4.09-15.35,5.4-23.6,6.37,1.23,1.25,1.93,2.2,1.61,3.76-2.15,0-4.41.46-6.47-.33-.44-4.59,8.68-5.83,12.88-10.63,5.7-6.52,9.6-13.97,12.2-22.12l6.74-21.18c2.47,1.69,3.95,3.91,5.62,6.65,1.66-.33,2.92-.88,4.32-.52.16.26.67,1.05.9,1.17.2.1.64-.52.5-.79Z"/>
    <path class="cls-21" d="M235.75,402.58c.71,2.8-1.36,6.54-4.64,7.02-.88.13-2.03-.47-2.39-.08-.42.44-1.19,1.39-1.39,2.21-2.96,12.01-.34,24.51,6.69,34.66l1.68,3.27c2.43,2.73,4.34,5.88,5.71,9.45.79,1.38-.37,1.53-1.94,1.67l-7.16-5.42c-4.34-1.12-8.27-2.98-11.76-5.6.53,6.1,1.94,11.98,4.25,17.65-.47.56-1.1.8-1.86.79-.52.31-1.15-.05-1.89-1.08,3.09,3.77,5.88,7.66,8.39,11.69l-.6,1.02-2.66-.06c-8.76-8.78-16.02-18.85-21.79-30.24-.27-.27-.59-.36-.75-.21-3.29,3.05-1.28,32.61.28,38.35,6.83,35.38,14.11,70.8,21.83,106.27-1.75,2.06-2.63,2.25-4.04-.72-15.25-36.44-28.76-74.77-37.18-113.36-1.34-6.16-1.88-12.5-1.83-18.8,0,0-12.24,7.11-36.73,21.34-18.59,9.47-36.94,18.43-55.06,26.88l-4.21,2.93c-1.32-.43-2.68-.92-4.07-1.48l-1.67.69c-4.85-3.63-10.6-6.54-16.67-7.23,24.2,6.91,39.81,34.16,50.38,55.55.31.63.4,1.37.48,2.15s.05,1.58,0,2.39c11.95,24.45,21.49,50.16,29.81,76.09-.24,3.75-3.24,3.77-6.17.78-9.4-10.77-19.13-21.21-29.18-31.32l-1.38-2.69c-.37-1.38.48-1.59,2.53-.63l1.74-.61,15.3,12.91c-8.25-28.12-20.06-64.66-41.6-85.31-2.09-2-13.45-10.59-15.17-10.21-1.56.34-9.08,9.8-10.31,11.65-14.97,22.6-27.87,55.08-6.21,77.18,7.45,8.25,15.11,16.21,22.98,23.88,1.25,3.35-2.08,5.37-4.91,4.64-15.97-4.12-29.88-12.07-43.01-21.87.28,6.83,4.57,12.86,9.65,17.27,5.28,4.02,10.31,8.29,15.09,12.8,3.34,8.49-12.24,7.27-16.65,6.4-11.65.32-11.86,11.23-11.41,20.98,1.14,24.52,9.31,36.33,33.92,36.7l32.5,2.18c4.14.73,13.08,3,13.49,8.04.12,1.45-.02,2.19-1.91,2.53-24.96,6.04-47.88,21.74-58.27,45.4-8.36,19.03-8.38,30.5,13.15,14.24,5.97-3.03,8.91-1.9,4.48,3.95-6.84,6.39-16.48,17.88-16.3,27.69.02,1.18.94,5.57,1.15,5.38,33.93-32.09,78.13-56.5,125.05-61.32-6.56-3.32-13.42-5.91-20.58-7.78l-.88-2.04c.87-.7,1.85-1.27,2.97-1.38,6.66-.62,23.39,4.83,29.37,8.31.9.52,2.94,4.13,1.67,5.04,1.29-.5,2.48-.46,3.56.12.78.6,2.29.91,2.52,2.7-20.91-.49-40.19,3.02-59.33,10.7-35.02,14.05-66.13,35.71-91.31,63.73l-12.44,16.63-4.74,7.68c-.76,3.27-2.01,6.76-4.42,9.18l-4.17,14.03-5.49-36.28c-4.38-35.84-5.82-71.26-4.65-107.44l1.9-58.6c.4-12.21-1.19-23.96.59-36.16l6.68-25.86c.78-3.02,1.59-6.39.73-9.33-2.76-9.43.05-17.53,2.36-26.55,5.08-19.75,10.46-39.03,20.18-57.11,4.88-9.06,10.02-17.73,17.29-24.77,7.54-7.29,15.79-12.75,25.23-17.13l48.42-22.44c20.83-9.65,40.42-20.27,59.83-32.42l14.37-10.35c3.57-2.57,7.11-3.75,11.15-4.96,5.25-1.58,10.3-12.68,18.24-15.23-.56,1.58-2.06,2.14-2.21,3.17l3.31-.73c.69-.15,1.47-.98.7-2.03-.41-.56-.35-.96.11-1.21.25-.13.87.02,1.26.17Z"/>
    <path class="cls-57" d="M19.91,873.82l4.42-9.18c.4,3.26-2.42,9.1-4.42,9.18Z"/>
    <path class="cls-10" d="M464.18,414.08c2.71,1.89,3.53,3.93,2.47,6.11,0,0,12.47,4.21,37.4,12.64,26.57,7.06,52.77,14.66,78.61,22.79,4.86,1.4,8.31,3.82,10.34,7.24.27,1.98-.22,2.31-2.1,1.78-13.07,9.37-22.49,23.42-29.6,37.82l-2.32,1.16-11.52,29.94-8.25,29.95-7.95,40.52c-.29,1.52-1.16,2.32-.87.64-3.18,13.49-6.22,27.03-9.11,40.63-1.45,2.98-2.89,3.91-4.35.62,3.77-37.62,7.07-75.52,9.9-113.7-10.6,55.72-15.91,83.58-15.91,83.58-9.59,45.25-24.24,81.34-71.04,97.19-44.24,14.98-105.18,25.82-151.63,22.32-65.66-4.95-93.5-53.76-116.1-106.86l-26.57-73.25c7.81,47.73,21.55,96.45,38.03,142.8.82,4.35-.05,4.44-3.75,1.82-10.9-16.53-19.42-34.05-25.56-52.55l-.81.82c-6.94-20.82-14.51-41.29-22.81-61.45l-2.62-2.16c-7.85-18.72-16.72-37.17-28.52-53.77-4.96-6.98-10.57-13-17.11-18.1l.21-1.92c.78-.6,2.4,0,3.49.15,1.92-2.32,5.07-3.47,7.81-4.78l22.17-10.57c23.34-11.13,47.56-23.47,68.35-38.42-.57,9.03.33,16.68,2.16,24.88,3.24,14.51,6.98,28.24,11.65,42.48,7.85,23.94,15.24,47.64,26.12,70.73l-14.76-69.99-5.72-28.79c-3.05-15.36-6.18-36.72-.51-51.51,7.78,12.09,14.59,26.91,25.45,34.92l3.04,1.09c11.1,12.07,25.95,19.58,41.3,24.78l3.71,2.62,21.69,22.38c5.24,5.41,11.29,9.84,18.26,12.76,2.3.96,3.18,1.98,3.88,4.29,2.77-.57,3.51,5.1,2.35,7.23-2.47,1.15-3.98,2.84-4.52,5.09.82,2.9,1.87,5.83,3.15,8.78-1.56,8.62-3.81,17.11-6.75,25.46,1.55,1.14,3.68,1.5,5.5.95l5.02-14.51c.96-2.11,2.09-1.47,3.68-.18l4.66,14.31c1.77.58,4.1.3,5.45-1.04l-6.92-23.53c.55-2.45,1.41-4.89,2.6-7.31.9-3.59-.57-6.75-4.42-9.5-.41-1.58,2.32-8.45,3.59-10.02,7.37-3.9,13.62-9.19,18.85-15.74l20.32-25.44c19.88-10.16,39.46-21.33,54.29-38.87l3.84-2.03c2.06-2.23,4.31-.11,3.14,3.03l-4.13,10.71c-10.05,21.45-20.32,42.33-30.79,62.64.19.88,3.34,2.87,3.5,2.71,16.58-15.19,27.67-40.98,35.61-61.7l2.43-2.23-.21-4.53c6.52-18.58,9.43-37.55,9.25-56.67l1.63-1.03c.77-1.72,2.37-1.82,4.8-.28.55-2.42,1.34-2.8,3.56-1.82l3.95,1.87Z"/>
    <path class="cls-65" d="M675.04,629.38l3.07,14.07c-.45,2.27-1.37,4.51-2.75,6.73,5.41,27.98,9.11,56.56,11.12,85.73l-1.84,93.68c2.19,2.01,2.91,4.42,3.19,7.34l-.43,6.85-1.06,23.04-1.3-.25c-5.9-11.59-15.3-18.71-26.57-25.29-38.69-22.6-80.64-42.16-125.38-47.43-1.18-.24-2.15-.55-2.37-1.14-1.11-3.05,6.93-7.83,9.4-9.21,19.91-11.16,42.19-7.03,63.92-2.21-1.1.34,37.66,10.34,35.4,7.32-3.72-4.97-14.14-11.05-19.95-13.82-27.71-13.21-54.61-7.03-82.07-.69-1.84-.51-3.41-1.58-4.7-3.2l3.16-2.76c.31-.72.65-1.42,1.08-2.06,3.31-4.92,23.64-15.24,30.19-17.72,1.42-.54,2.91-.52,4.39-.24,3.15-3.01,7.03-5.03,11.65-6.08,15.58-4.59,31.05-9.32,46.4-14.21,2.38.44,21.55-11.9,20.39-11.67-24.53,4.78-49.06,10.4-73.21,17.77-8.25,3.93-16.64,7.21-25.16,9.85-2.58.18-2.74-.67-2.79-2.93-.16-7.29,16.08-19.73,22.23-23.07l35.53-21.23c20.16-12.95,32.72-32.73,42.03-53.53-1.48-.81-2.39-1.5-1.94-3.28-20.67,24.92-46.13,47.09-74.54,62.6-4.78,2.61-25.61,13.14-26.32,3.32-.45-6.19,19.8-24.25,24.8-28.64,20.31-16.37,39.77-33.98,58.37-52.82-14.55,9.39-55.17,34.75-73.92,29.9-9.2-2.38-7.16-12.75-5.24-19.85,9.13-33.72,39.29-60.94,67.41-80.24-13.98,4.18-26,12.74-37.56,21.04l-1.81-.67.27,1.78c-7.41,5.86-14.51,12.11-21.3,18.75-9.4,6.35-6.74-1.98-3.59-8.36,2.96-4.17,5.37-8.45,7.22-12.85-2.31-.94,4.89-9.24,5.44-9.52.57-.29,1.3-.08,1.93.11,1.79-5.23,8.22-12.29,12.5-16.16,1.94-2.09,4.06-3.45,6.36-4.07,6.2-7.15,13.17-12.91,20.64-18.73-15.26,8.31-29.12,18.6-41.58,30.86-1.61,2.54-9.78,10.97-12.67,10.2-3.2-.85-3.65-6.85-3.08-9.93,5.82-31.33,17.52-59.89,36.68-85.43,1.67-2.22,7.74-8.71,10.33-6.51.71.02,1.42.08,2.1.24,5.07,1.21,17.32,14.93,21.14,19.74,25.49,32.15,36.77,72.64,46.35,110.71,6.27,12.16,9.25,24.6,6.27,38.43-.06.26.85-4.99,2.14-4.24Z"/>
    <path class="cls-128" d="M686.35,866.81l-.22,2.28-.77.71-2.93-4.33c-3.91-4.03-7.48-8.58-12.3-11.92-1.59-2.14-5.25-4.67-6.19-4.29l-14.4-8.5c-2.05-2.02-4.7-3.23-7.44-3.99l-2.95-1.59c-6.95-4.6-15.24-8.68-22.92-11.47l-4.23-1.95c-1.46-1.37-4.2-3.05-6.13-2.78l-27.79-11.05c-.23-.92-3.42-2.06-5.63-1.78l-19.4-5.4c-14.8-4.12-29.88-5.35-44.9-4.34,3.65-4.71,7.71-8.06,12.64-10.87,5.16-2.94,3.52-10.82,11.93-14.68.7-.09,2.11-.8,2.47-.31l1.5,2.05,17.62-3.69c31.58-8.29,64.71-3.29,87.9,20.02-2.55,1.71-5.66,2.12-7.85,1.67l-10.04-2.08c-18.53-5.85-37.07-9.99-56.59-10.58-11.76-.35-27.79,4.97-36.3,14.14,15.13,1.73,28.81,4.37,43.01,8.95,28.52,9.2,55.37,21.33,81.08,36.61,7.64,4.54,14.6,8.93,21.21,14.78,4.45,3.93,7.18,9.42,9.59,14.39Z"/>
    <path class="cls-132" d="M443.68,403.21c6.82,3.72,6.94,11.93,5.75,19-5.14,30.61-41.02,63.73-69.08,74.75-.42.17-.93.12-1.47.06-.57-.07-1.12-.25-1.67-.45,10.27-14.94,20.11-29.99,28.7-46.21,13.8-13.48,27.85-35.56,19.4-52.69-.9-1.83-1.11-4.15-3.24-5.63-.85-.59-1.49-1.41-1.66-2.3,12.02,2.14,16.16,13.63,23.26,13.48Z"/>
    <path class="cls-63" d="M675.04,629.38c-.18,1.12-1.21,2.41-2.14,4.24.92-9.07-1.01-17.8-2.92-27.09l-4.85-10.82-4.79-17.64c-6.63-29.31-17.61-56.9-33.85-82.21-8.03-12.51-17.71-22.8-29.45-31.37-.16-2.54,4.82-3.96,6.56-2.67-.47-1.76.1-2.22,1.72-1.37l4.76,3.23c8.62,7.61,15.6,16.15,21.8,26.02,11.54,18.4,21.39,37.44,28.5,58.04l6.05,29.06c1.26,6.05,3.11,11.39,7.05,16.14,3.69,4.45,5.95,9.99,4.98,15.82l-3.41,20.61Z"/>
    <path class="cls-111" d="M678.11,643.44l6.48,31.49c11.3,54.96,6.67,107.01,3.25,162-.8-2.42-3.48-4.81-4.69-6.96l.5-19.89,1.26-74.75c-.65-20.12-3.34-39.11-6.68-58.8l-4.39-25.84c-.44-2.57,2.8-5.48,4.29-7.24Z"/>
    <path class="cls-125" d="M605.32,460.45c-.47.96-1.05,1.22-1.72,1.37-2.14-.8-5.19-.04-9.15,2.26l-1.46-1.21c-7.76-5.03-16.37-8.22-25.58-10.75l-41.24-11.33c-19.58-5.38-38.52-10.94-57.47-18-2.74-1.02-5.06-2.17-6.95-4.14l4.04.59c-.25-3.71-3.37-4.48-1.62-5.16,24.88,8.78,50.16,15.25,75.88,22.43l39.24,10.94c9.65,2.69,18.56,7.04,26.03,13Z"/>
    <path class="cls-13" d="M445.06,403.18c1.8.66,3.17,1.5,4.1,2.51,3.08.66,5.8,6.89,2.69,8.63l-.33,9.56c-.2,5.83-.22,11.53-1.2,17.35-2.07,12.29-5.38,23.86-9.14,35.31-1.87,3.64-4.41,1.98-4.57-1.65,2.01-7.89,3.38-15.87,4.11-23.97l-7.35,10.43-1.96.03c-14.32,17.19-32.55,30.5-53.3,39.73-1.79.8-3.16,1.41-4.82,1.16l3.93-5.72c24.85-10.24,52.02-31.93,64.35-57.01,5.95-12.09,10.74-26.74,2.11-36.35l1.38-.03Z"/>
    <path class="cls-105" d="M460.22,412.21c-.9.28-2.2,1.09-1.85,1.83l1.76,3.77c-2.95-1.51-4.95-3.37-8.27-3.5.09-2.62-1.21-6.48-2.69-8.63-1.2-1.29-.75-1.68.81-.9l6.51,4.68c1.28.92,2.5,2.16,3.73,2.74Z"/>
    <path class="cls-132" d="M449.98,404.79c-.47.11-.97.41-.81.9-1.16-.67-3.88-.54-4.1-2.51,2-.04,3.47.57,4.92,1.61Z"/>
    <path class="cls-70" d="M110.76,606.47c-2.49-.51-4.77-1.86-6.85-4.06l-5.21-4.87c-2.23.26-6-2.37-5.45-4.88l-1.82.68c-6.34-4.58-12.76-8.85-20-11.85-12.1-5.02-9.54-1.36-2.45,5.22l25.31,21.11c18.6,16.34,42.19,41.99,46.1,67.26.52,3.34-2.13,5.9-5.42,5.83-25.11-3.1-49.9-5.85-74.39-8.24l5.68,3.16c12.95,4.62,26.17,7.96,39.66,10.02l.83,1.79c.64-.35,1.29-.63,1.96-.69,5.59-.49,32.59,7.22,35.88,10.97.46.52.83,1.12,1.17,1.73,5.8,2.82,11.4,6.78,16.51,11.1,4.96,4.19,8.25,9.31,10.01,15.04l-2.25.39c-15.4-9.55-37.14-15.97-53.78-6.17,9.45-1.07,17.5.8,26.44,3.3,3.53.99,20.55,7.75,23.09,9.52,1.2.83,1.66,1.54,2.06,2.94,3.56.44,6.57,2.48,7.6,6.01,1.5,1.09,2.63,2.54,3.85,3.84,1.27,2.03.07,2.27-2.09,1.49-.89-2.1-2.59-1.75-5.12,1.05-23.21-10.98-45.86-10.22-69,.14-2.12.95-9.49,4.32-6.45,4.52,3.97-.13,6.65.96,8.02,3.27,10.38-5.07,31.88-7.39,43.59-6.71.64.04,1.27.3,1.91.6s1.28.72,1.88,1.16c7.97,3.22,17.88,4.34,25.97,11.12-48.34,2.68-93.3,29.4-129.2,61.37-5.27-1.6-3.02-14.15.85-19.66l7.54-10.74c2.12-3.02,6.03-4.52,7.42-8.54-5.01,1.31-8.29,4.63-12.38,6.79l-5.74,3.04c-1.57.83-4.02.52-5.3-.38-5.62-3.95,2.86-25.48,9.26-34.7,12.95-18.66,32.12-30.43,54.84-35.67-2.81-4.75-8.12-6.84-13.37-7.18l-28.17-1.87c-12.44-.82-27.69-2.28-32.72-12.91-5.47-11.58-7.68-24.83-5.79-37.41,1.07-7.11,6.02-11.25,13.05-10.78l10.25.69c1.67.11,2.95-1.2,3.64-1.91s1.21-2.86.24-3.65l-13.67-11.06c-12.44-10.07-12.29-23.88-8.65-20.93,12.77,10.36,26.96,18.09,42.66,22.27l2.44-.21c.43-.04,1.68-1.28,1.01-1.95l-14.34-14.35c-9.48-9.49-21.35-23.65-20.68-36.92,1.03-20.37,8.84-39.5,21.02-55.46,2.59-3.39,5.32-5.98,8.66-8.35,9.95,3.73,17.36,10.41,23.66,18.76,16.99,22.53,28.62,53.35,35.72,80.8-1.99-.35-3.39-1.17-4.57-2.17l-14.93-12.71Z"/>
    <path class="cls-39" d="M531.25,604.04l-9.89,63.66c-.73.76-1.39,1.61-1.97,2.55-3.3,18.75-9.55,41.65-26,52.88l-.75,1.44c-3.16.1-6.27-.05-9.31-.44-7.36-4.02-16.79-3.75-23.48,2.15l-22.93,4.85-48.07,12.38c-51.18,13.19-101.85,18.59-154.06,20.61l-1.51-1.03c-33.48-4.51-51.08-33.06-62.4-62.34l-1.76-1.35-15.63-51.28c-.79-2.61-1.14-5.9-1.87-9.36l9.98,22.57c5.53,14.28,11.51,28.09,21.52,40.05-14.48-40.66-28.54-87.18-36.08-128.98l-6.44-35.7,14.66,40.24c7.29,20.01,13.44,39.77,21.81,59.36l14.2,28.81c18.31,33,44.69,61.08,83.31,67.02,11.36,1.75,21.97,2.44,33.65,2.14,34.77-.91,68.52-6.08,102.2-14.48,13.34-3.33,25.74-6.7,38.34-11.78,8.7-3.51,16.1-7.99,23.12-14.47,33.77-31.21,36.61-76.63,45.07-119.58l11.47-58.28c1.69,3.4.79,6.75.49,10.41l-9.02,109.52-1.53,11.45c2.63-2.68,1.58-6.33,2.45-9.59l8.95-33.47,1.47.08Z"/>
    <path class="cls-101" d="M571.56,748.1l-1.58-.95c-11.13,4.32-21.91,9.53-32.34,15.64l-3.36.37c-.49-4.2.43-8.3,2.02-12.65-9.84-10.47-17.2-18.21-14.05-32.75,2.35-10.87,3.63-21.43,3.93-32.63.25-8.94.45-17.59,2.6-26.25,2.33-9.43,6.36-17.92,10.23-26.85l.06-2.08c4.99-9.47,10.84-19.05,17.24-27.76,3.83-5.21,7.21-9.64,12.14-13.95.96-.84,1.99-1.56,3.09-2.19l-.45-1.76,7.19-6.76c-1.11-.91-1.17-1.88-.39-3.18l7.56-5.32,7.93-5.56c9.43-4.8,18.33-11.5,30.05-11.95-12.68,9.34-24.8,17.25-35.74,27.84-12.92,12.51-24.09,26.05-31.49,42.5-4.04,8.98-9.3,23.23-4.45,28.63,4.5,5.01,18.49,1.27,27.27-1.85,20.58-7.31,38.87-18.07,56.62-31.34.15,2.76-1.97,4.14-3.49,5.81-15.04,16.5-31.48,30.86-48.71,45.09-10.02,8.28-34.63,29.04-36.03,37.58-.33,2.01,2.75,2.81,4.34,2.49,10.54-2.08,19.27-6.82,28.3-12.42,27.01-16.74,50.02-37.26,69.74-62.54,2.09,3.71-1.42,5.07-1.92,7.96,1.43-.39,3.22-.38,3.17.41l-7.73,15.63c-8.19,16.58-20.57,30-35.85,40.52l-28.94,17.25c-10.76,6.41-26.38,15.54-28.45,27.5l12.74-4.23c9.42-4.59,18.65-8.43,28.88-10.82l17.5-4.09,42.83-9.4c.99-.22,1.83,1.28.82,2.09-11.47,9.26-24.65,14.75-38.9,18.41-14.71,3.77-28.68,7.99-42.39,13.54Z"/>
    <path class="cls-128" d="M93.25,592.65c.38,1.93-1.27,3.02-3.04,3.1,22.31,15.23,40.05,37.26,56.85,58.16,1.03,1.58,1.29,3.47.77,5.65,3.43,9.26,6.84,18.61,10.24,28.04,1.54,6.32,2.59,12.63-6.18,9.69l-6.94-3.49-2.2.75c-11.84-5.31-23.85-7.62-36.02-6.91l-18.68-3.68c-11.85-2.34-23.57-5.55-34.04-13.59l32.82,3.55c16.19.9,31.72,2.76,47.67,5.37,1.45.24,3.18-.56,3.68-1.29.41-.6.81-2.12.55-3.26-5.74-25.55-26.66-50.01-46.53-66.59l-15.67-13.07c-5.98-4.98-17.65-13.77-14.91-16.67,2.64-2.78,16.68,3.94,23.17,8.42l8.45,5.82Z"/>
    <path class="cls-99" d="M603.6,461.83c-2.37.55-4.47,1.56-6.56,2.67-2.69,1.45-5.56,3.01-7.82,5.88-20.54,26.07-30.31,52.57-37.4,85.05-.7,3.2-.15,6.48.7,9.64,4.01-1.06,6.32-3.75,9.03-6.28l9.07-8.45,19.65-16.97c7.54-5.23,15.22-10.11,24.92-12.14l-18.94,14.96-9.53,7.85c-.28-1.12-.67-1.43-1.41-.88-3.77,2.83-7.51,5.69-10.81,9.08l-2.91.77c.27.97-.74,2.3-1.77,1.96-2.22,1.27-4.03,3.14-5.09,5.48l-1.77,4.73c-9.03,11.4-16.73,23.77-23.19,36.8-1.82,1.66-3.17,1.1-2.73-1.35,3.47-18.28,6.58-36.73,11.63-54.72-.15-.99-.26-1.98-.26-2.98s.03-1.93.28-2.83c4.85-17.99,12.75-38.52,22.85-54.12,5.62-8.67,11.11-16.05,19.35-21.34.36-.98,1.17-1.51,2.1-1.78,3.37-.99,6.37-2.77,10.4-2.66.16.39.22,1.13.21,1.61Z"/>
    <path class="cls-62" d="M179.29,745.61c6.98,7.46,4.19,12.86,10.33,17.6-2.42,2.14-5.61,1.77-6.37-.03,1.06-.66,2.06-1.49,2.13-2s-1.18-1.43-1.75-1.72c-10.03-5.11-20.75-7.7-31.6-8.34-15.98-.93-32.14,1.31-47.65,6.33-3.11-4.94-9.92-.77-10.71-5.7,23.27-15.01,53.29-17.96,78.32-4.95l3.2-3.78c2.85,1.93,3.61,4.6,4.08,2.58Z"/>
    <path class="cls-22" d="M234.79,764.11l-35.82,1.39c-2.97-6.01-8.53-6.66-9.12-10.61-1.67-11.25-9.69-12.13-10.13-20.21-.38-6.98-3.71-12.5-5.63-18.86l-4.96-16.43c.58-.14,1.34-.5,1.82-.38.73.18,1.36,1.43,1.73,2.27,5.06,11.67,10.43,22.74,17.65,33.21,10.79,15.66,24.92,23.29,43.35,27.49,1.09.25,1.35,1.29,1.12,2.14Z"/>
    <path class="cls-37" d="M521.36,667.7c.43,1.79.3,4.18-.54,5.78-.44,2.19-.89,7.55,0,10.86,0,4.83-.62,9.46-1.41,14.54l-3.11,20c-.38,2.45-.73,4.35-.25,7.1-1.9-1.23-3.16-1.03-4.21.09-.83.88-.5,2.18.18,3.59-7.32-1.96-13.95-4.25-21.56-4.85-2.45-.19-5.36,1.12-7.11-.7l8.5-.14c-.35-1.38.27-1.95,1.41-2.63,15.57-9.29,22.85-40.26,27.02-58.22l1.1,4.57Z"/>
    <path class="cls-45" d="M172.27,725.78c1.58,5.13,2.94,10.54,3.18,15.98l-5.28-3.86c-.87-.64-3.19,0-3.47-.71l-1.06-2.72-22.45-9.28c-10.11-4.02-19.96-4.32-31.79-3.22,14.64-15.01,44.9-7.56,60.87,3.81Z"/>
    <path class="cls-108" d="M102.82,602.4c1.81.23,5.7,2.81,5.41,4.69,11.95,10.82,23.02,22.4,33.54,35.13,1.21-.8,1.96-1.53,3.19-1.89l6.46,20.12,5.67,18.19,1.78,7.89,6.06,19.55-13.03-8.8c1.45-1.05,2.92-1.01,5.49-.6-.05-3.5.43-7.52-1.02-11l-9.2-21.99c-.96-2.3-1.3-4.87-.4-7.45-6.55-9.54-14.32-17.73-22.1-26.5-10.98-12.37-22.49-23.68-34.45-33.99,1.19-1.28,2.71-1.26,4.57.06l8.04,6.58Z"/>
    <path class="cls-69" d="M82.64,510.7l8.29,7.15c16.81,17.37,30.55,46.43,39.75,68.8-2.16,1.17,2.13,5.7,2.02,10.3l-7.29-13.24-9.12-19.74c0-.75-1.03-.75-1.13.27-6.24-12.77-13.17-25.11-22.01-36.63-8.62-11.24-20.62-22.47-35.04-22.48,3.33-6.31,18.33.22,24.54,5.57Z"/>
    <path class="cls-68" d="M577.89,574.35c.61,1.25,1.6,2.03,2.64,3.25l-8.99,8.45c-12.76,11.04-23.41,24.18-31.93,39.42-1.79.88-3.62.34-5.49-1.62l2.87-7.95c-.16-.76-.28-1.52-.29-2.28s0-1.46.23-2.09c4.55-12.16,11.89-25.32,19.81-35.6.41-.53,1.01-.92,1.65-1.31s1.36-.69,2.09-.96c.74,1.1.55,2.06-.03,3.16-3.35,6.3-7.55,11.97-9.02,19.25,4.09-1.26,6.19-4.27,8.88-6.68l13.02-11.7,4.57-3.36Z"/>
    <path class="cls-103" d="M567.86,564.27l-7.37,9.41c-10,12.76-18,27.04-23.49,42.24-.6-.29-.56.02-1.64.9-1.07-5.49.68-10.88,1.69-16.18.12.89,1.04,1.31,1.45.46,7.25-14.84,16.02-28.25,26.24-40.64,1.02-2.32,2.87-4.24,5.09-5.48l1.77-1.96c1.74-.53,1.87-.1,1.91,1.46-2.55,3-4.43,6.27-5.64,9.8Z"/>
    <path class="cls-9" d="M590.9,464.65c-.57,1.57-2.19,3.48-3.99,3.85-2.91.59-2.64,2.74-3.91,4.36-7.55,9.61-14.25,19.38-19.3,30.77-6.14,13.86-11.02,27.99-15.03,42.29-.82.08-1.46,1.25-3.21,1.03,2.22-11,5.93-21.24,9.96-31.64,2.52-6.51,5.38-11.49,3.56-11.67,6.76-14.41,17.8-32.13,31.92-38.98Z"/>
    <path class="cls-27" d="M571.54,586.06c-13.32,13.8-22.64,30.41-32.54,45.98l-7.72,12.16c-.35-7.61,1.56-13.85,2.84-20.34.65-.4,1.55-.82,1.99-.51l2.09,1.5,14.03-21.19c3.75-5.66,14-16.53,19.31-17.61Z"/>
    <path class="cls-131" d="M571.56,748.1c-12.74,5.16-24.46,12.02-35.66,20.02-1.03-1.67-1.42-3.26-1.62-4.95,7.79-5.53,16.48-9.58,25.57-13.38l12.47-5.21c.39,1.71-.49,2.64-.76,3.53Z"/>
    <path class="cls-73" d="M144.96,693.79c-1.31-.52-2.11.76-.82,1.43,1.35,1.26,2.59,2.82,1.6,4.42-12.33-5.99-25.64-9.37-39.01-12.01,1.33-6.22,31.36,2.71,38.22,6.16Z"/>
    <g>
      <path class="cls-57" d="M548.67,545.92l.28,2.97c-3.22,16.46-6.67,32.86-10.35,49.2l-1.56,2.55,1.29,1.65-1.34,6.62c-.65,2.59-.65,4.92,0,7.01,2.47,1.61-.53,7.18-2.87,7.95l1.21,2.02-2.29,12.59,4.03-6.34,1.94-.08.29,3.31c-8.79,17.11-12.11,34.92-11.69,54.04-.91,11.54-2.41,22.96-4.5,34.26l.68,6.12c3.03,7.53,7.67,14.34,13.92,20.44-1.03,3.55-1.69,7.13-1.97,10.74l-1.46,2.22c2.14.12,3.12,3.51,1.62,4.95,1.23,1.39.17,2.31-3.16,2.76.09,1.44-.74,2.61-2.49,3.5-2.47,3.33-4.66,6.95-6.56,10.86-4.32,2.72-8.26,5.85-11.83,9.39,20.83-1.49,40.7,4.11,59.93,9.69l.68,1.84c1.9-.35,4.52.52,5.63,1.78l1.45-1.14c8.62,3.43,17.24,6.85,25.86,10.28l.49,1.91c1.56-.42,4.71,1.37,6.13,2.78.72-2.29,4.82-.28,4.23,1.95,7.66,2.75,15.98,6.92,22.92,11.47,1.41-1.88,3.53-.64,2.95,1.59,2.72.74,5.41,1.96,7.44,3.99.43-.47.96-.96,1.58-.92.73.05,11.54,6.62,12.66,7.47l.15,1.94c1.78.1,4.81,2.37,6.19,4.29l2.46-.16c3.51,2.97,6.77,6.21,9.78,9.7l.06,2.38c1.96,2.06,2.5,3.52,1.62,4.37,1.15,2.03-.8,2.75-2.29,1.06-3.82,1.73-7.09-2.63-9.06-5.7v-1.86c.39-1.2.68-2.99.75-4.57.06-1.46-2.02-3-3.39-3.04-.97-.03-1.94,1.43-2.7,2.27-1.38.61-4.59-2.01-5.51-3.39-2.17-.43-4.37-.92-6.34-1.97-42.02-22.54-83.66-44.67-131.05-49.66l-1.03-.87-.88,1.61c-18.22-.71-35.67,2.66-53.09,9.87l-3.48-.47c-48.52,24.56-96.75,50.01-144.7,76.34l-1.6-.94c-1.08-.94-.84-2.19-1.97-2.87l49.03-25.68,38.05-20.89,52.1-26.67c12.62-6.46,25.56-10.78,39.19-13.9,3.62-5.69,4.65-11.65,4.88-17.74l-1.54-2.34c.41-20.77-12.22-51.67-37.41-45.86l-65.39,16.24c-68.87,18.58-143.15,23.39-212.45,24.52l-1-1.56c-58.59,7.01-113.94,41.1-148.06,88.55-.64.56-.88.14-1.02-.26-.19-.57-.53-1.11-.42-1.45l.78-2.36c-2.05-1.2-3.59-.56-5.4.69-.4-.51-.98-1.28-.72-1.69,24.78-38.98,81.5-77.18,127.25-87.44,9.72-2.18,20.52-4.14,30.31-2.55,1.94.06,3.91-.25,3.72-2.07-.73.39-1.48.49-2.24.16-1.27-.55-4.74-8.93-5.62-11.41-1.81-2.25-2.64-4.36-2.47-6.35-1.33-1.07-2.69-1.97-4.1-2.69l.25-1.15c-1.95-4.1-3.31-8.59-4.09-13.48l.91-2.51c-5.11-7.67-9.33-12.82-16.89-18.42-2.61-1.94-5.38-3.65-8.23-5.21l-1.41-2.51c-1.61-1.62-2.82-3.46-3.63-5.54.39-.97,1.34-1.07,2.85-.3,1.47-2.04,7.46,1.09,6.94,3.49,3.44.55,6.8,2.09,10.07,4.61-12.12-40-18.17-60-18.17-60l1.17-1.57-2.1-3.05c-6.36-17.82-13.12-35.49-20.29-53.03-3.46-6.46-5.93-13.13-7.42-20-.73-2.51.44-2.46,2.47-1.08,3.57,7.94,7.33,15.79,11.26,23.55l1.8-.06c5.33,8.5,9.5,17.69,12.52,27.56,4.29,11.14,8.48,22.14,10.28,33.89l1.09-.07c5.67,16.51,10.93,33.17,15.79,49.98l-1.24,1.38c.6-.25,1.08-.19,1.31.35.66,1.54,1.27,3.08,1.86,4.64,3.96,10.4,7.4,22.52,9.76,33.39,4.9,5.36,8.15,11.34,9.76,17.95,3.09,2.36,5.77,5.05,8.04,8.08l30.11-1.08c2.29-.2,3.9.27,4.83,1.41l3.97-1.22c46.27-3.1,92.71-7.07,137.93-18.03,27.69-7.47,55.19-14.13,82.47-19.99,3.97-3.62,9.42-5.25,14.73-5.02,3.07.13,9.22.81,9.45,4.27,2.96.71,7.03.78,9.56-.65,5.52.83,10.96,2.09,16.29,3.77,1.04-2.3,2.72-3.55,5.03-3.75,1.79-12.21,3.44-24.54,4.97-36.98l1.63-2.16c-.81-3.33-.56-7.55,0-10.86l.26-2.67c-1.2-1.31-1.11-2.35.28-3.12.21-2-.08-3.57-.88-4.72,2.7-19.64,6.01-39.14,9.94-58.51l.83-.42c-.6-.19-1.49-.59-1.42-1.02,5.16-32.92,13.92-68.58,27.32-99.08l1.82-.31c1.82-.59,2.46.19,2,2-5.51,12.68-9.94,25.85-13.3,39.52l1,.76Z"/>
      <g>
        <g>
          <path class="cls-65" d="M686.13,869.09c-.17,1.78.71,3.69-.5,4.96-.05-1.59-.46-3.12-1.58-4.2-.28-1.47-.97-2.81-1.62-4.37l3.7,3.62Z"/>
          <path class="cls-65" d="M639.16,835.2l-22.92-11.47c.02-.79.63-.97,1.28-.65l19.75,9.85c1.14.57,1.89,1.05,1.88,2.27Z"/>
          <path class="cls-39" d="M520.82,673.48v10.86c-.36.11-.9-.23-.89-.8l.24-13.57c.98,1.25.65,2.58.65,3.5Z"/>
          <path class="cls-65" d="M649.54,840.77l-7.44-3.99c2.82.09,6.11,1.43,7.44,3.99Z"/>
          <path class="cls-65" d="M670.13,853.56l-6.19-4.29c-.11-.49.34-.99.53-.86l1.6,1.1c1.79,1.23,3.98,1.96,4.06,4.05Z"/>
          <path class="cls-65" d="M612.02,821.77l-6.13-2.78c0-.97.73-.96,1.08-.78l1.9.97c1.35.69,3.07.98,3.15,2.59Z"/>
          <path class="cls-65" d="M578.09,807.94l-5.63-1.78c1.24-1.27,3.31-.4,5.05.69.8-.51,1.71.5.58,1.09Z"/>
        </g>
        <g>
          <path class="cls-94" d="M667.36,858.01l.77.85c-.09.72-.7,1.48-.86,2.24-1.93-4.84-7.96-5.2-5.42-6.48l5.51,3.39Z"/>
          <path class="cls-107" d="M516.7,738.01l-.83,1.69c8.56,11.45,11.16,23.53.79,34.84-.75.82-5.64,5.89-6.21,4.55l-.89-5.61-1.53-10.26-2.02-1.3c-3.06-10.45-7-21.48-15.8-28.48l-.48-2.28c-1.29-1.25,0-2.01.52-1.2,9.58.91,18.42,3.6,26.47,8.07Z"/>
          <path class="cls-38" d="M516.7,738.01c2.19-.54,3.72,1.66,5.11,3.35l8.67,10.62c-1.41,4.88-1.54,9.44-.64,14.49-5.49,3.44-9.18,8.4-9.86,14.82-4.05,1.58-7.12,3.32-10.44,6.14v-13.96c1.03.87.9,2.33.99,4.68,3.34-2.99,6.83-6.08,9.17-10.4,5.65-10.44-.86-23.66-9.09-31.45,2.7.78,4.08,2.21,6.08,1.71Z"/>
          <path class="cls-23" d="M489.72,731.15c10.09,6.59,15.07,20.27,18.3,32.06-2.25,3.67,1.58,8.84-.74,10.68-.64.51-3.06,1.03-3.18-.24-.88-9.18-2.69-17.37-6.78-25.23-6.16-11.82-16.15-20.92-29.16-23.11,7.91-1.63,14.96,1.52,21.57,5.84Z"/>
        </g>
      </g>
    </g>
    <path class="cls-16" d="M332.51,539.48c-.97.36-2.05.21-3.24-.44-2.63-.09-5.09.81-7.4,2.71l-2.41-1.48c-3.46-2.36-7.86-4.75-12.05-8.06-9.89-7.8-17.96-16.77-26.27-26.27-11.6-13.25-22.12-26.56-31.2-42.63,17.22,12.94,36.33,19.31,57.44,20.64,31.95,2.01,62.36-6.07,88.78-25.29-11.72,20.09-24.08,38.2-37.96,55.93-7.56,9.66-15.65,18.14-25.69,24.88Z"/>
    <path class="cls-81" d="M235.69,449.66c2.96.97,3.54,4.05,5.02,6.82,8.96,16.67,19.87,31.84,31.64,46.25.78.82.86,1.38-.15,1.97-.93.54-16.2-6.59-18.72-7.96-12.12-6.57-24.63-16.06-30.55-28.57.7-1.25.07-2.61-.55-3.77-2.33-4.35-2.99-8.27-3.11-13.2-.04-1.48-2.15-3.16,0-5.4,3.1,4.91,8.59,6.27,13.76,8.14l7.91,5.95c-1.08-3.63-3.51-6.81-5.27-10.25Z"/>
    <path class="cls-110" d="M222.94,468.18c11.54,15.98,28.74,28.05,47.95,34.33l1.04,1.02c.13.12.58-.52.42-.8l4.55,5.57c-17.99-5.02-36.16-14.24-48.06-28.49l-8.65-13.27c1.76-.28,2.09,1.08,2.75,1.65Z"/>
    <g>
      <path class="cls-112" d="M414.23,394.69l1.46-.94,5.49,3.62c1.05-.74,2.43-.64,4.14.28,3.94,1.04,4.2,8.19,4.15,11.95-.24,15.63-11.63,31-22.25,41.66-7.85,14.04-15.94,28.47-25.44,41.47l-4.54,3.83c2.05,2.23-1.63,4.94-3.93,5.72.32.2.61.42.79.71,1.25,1.94-26.25,32.67-29.23,35.25-3.39,3.52-6.97,5.26-10.74,5.23-2.21.85-3.53-2.77-1.61-3.99,1.63-3.09,4.17-5.69,7.62-7.83,20.32-18.64,35.97-43.44,50.2-67.07-39.37,25.08-93.47,29.86-133.96,5.1l-.62.31c17.39,25.27,37.32,51.79,63.24,68.06l.47,2.22c5-.63,5.16,6.16,1.28,7.46-1.19-.08-2.33-.85-3.43-2.3-15.66-7.55-29.38-22.49-40.9-35.35l.49-1.78c-3.85-1.57-5.37-3.43-4.55-5.57l-4.43-2.96c-9.1-10.69-19.71-25.56-26.1-38-.92-4.45-3-8.98-6.13-12.12-2.33.53-4.87-4.92-5.9-7.15-4.69-10.15-8.54-24.55-1.85-34.29,2.42.11,4.47-.53,6.17-1.93l1.63-3.71c.41.3.93.64,1.28.49l1.76-.77.16,12.26c.01.84.27,1.75-.17,2.39-.27.4-1.05.65-1.62.78-.83.19-1.45,1.1-1.39,2.32-.45,10.5,1.96,20.42,6.88,29.66,11.88,13.2,27.37,21.65,44.21,26.07,37.82,9.92,87.59-.72,115.05-28.92,6.08-6.24,7.36-16.54,11.29-23.64,0,1.65.22,3.7,1.7,4.85.49.36.87.64.9.59,3.45-6.1,10.19-21.32.99-24.99-1.15-1.03-1.79-2.11-1.93-3.27.33-.44.52-.89.34-1.16-.15-.22-.84-.51-1.21-.47-2.36.19-2.65-1.19-2.45-3.03.14-1.28,1.34-1.72,2.7-1.05Z"/>
      <path class="cls-2" d="M414.9,428.07l2-7.09c1.94-6.88,1-14.01-2.99-20.08-.19-.29.89-.88.95-.49,1.89,2.34,6.46,3.04,7.66,6.55,2.61,7.67-4.1,20.84-10.08,28.57l2.47-7.46Z"/>
      <path class="cls-19" d="M420.42,389.73c4.89,2.26,6.52,4.9,4.9,7.93-.4.57-.57,1.21-1.46,1.51-.28-.66-1.05-1.21-1.31-1s-1.06,1.43-1.36,1.23l-6.95-4.71.5-5.66c2-.21,3.82.36,5.69.69Z"/>
      <path class="cls-32" d="M234.95,417.67c-2.5,3.42-2.14,7.69-2.75,12.05-2.3-6.01-.57-12.39,4.08-16.93,1.22,2.35-.31,3.48-1.34,4.89Z"/>
    </g>
    <path class="cls-128" d="M110.76,606.47l-2.53.63c-1.76-1.59-3.88-2.88-5.41-4.69l-4.56-3.84.44-1.02,12.06,8.93Z"/>
    <path class="cls-54" d="M441.19,476.54c-7.15,21.81-20.34,48.57-37.16,65.18-1.56,1.24-6.43-2.5-6.11-4.5l15.77-30.71c7.53-14.66,14.59-28.74,20.1-44.67-.62.04-1.46.05-2.38-.46l10.01-14.42c.63,1.13.97,2.64.88,4.03-.49,8.09-2.17,15.69-4.07,23.56-.19.79.12,1.88.55,2.42.4.5,1.58-.21,2.4-.43Z"/>
    <path class="cls-3" d="M586.72,544.03c-.49,2.36-3.58,3.37-5.22,5.18l-13.64,15.05c-2.73-5.83,6.46-9.77,3.73-11.26,4.64-5.14,10.17-9.35,16.05-13.47,2.42-1.7,4.23-3.82,7.05-4.85-3.25,4.41-7.12,5.26-7.97,9.34Z"/>
    <path class="cls-21" d="M93.25,592.65c1.96,1.35,3.91,3.06,5.45,4.88l4.12,4.86c-3.93-1.93-7.54-5.29-12.61-6.65.48-2,1.65-2.51,3.04-3.1Z"/>
    <path class="cls-65" d="M564.73,560.45c.14-2.58,2.61-5.06,5.09-5.48l-5.09,5.48Z"/>
    <g>
      <path class="cls-51" d="M332.51,539.48l1.61,3.99c1.18,2.93-1.54,6.42-2.21,9.63,1.75,1.73,4.47,3.45,4.76,5.39,1.03,6.91-3.35,9.64-2.7,11.87l6.86,23.42c.09,2.92-7.67,4.15-8.52,1.55l-4.94-15.14-5.42,15.59c-.83,2.39-8.14,1.26-8.67-1.38l6-19.92c1.09-3.62,1.6-6.33-.87-9.59-1.38-1.83-1.91-4.57-.96-6.85.72-1.73,2.67-3.23,5.1-4.44l-1.8-5.86c.09-.63.21-1.62.57-2.38,1.14-2.41.21-3.68-1.84-5.09,1.39.12,2.29.14,3.16-.74,2.47-2.49,8.63-3.17,9.89-.05Z"/>
      <path class="cls-93" d="M320.39,594.46l-4.76-.72,8.22-26.58c.33-1.08.88-2.17,1.74-2.7.93-.57,2.08.49,3.91-.21-2.35-1.83-4.9-1.48-7.42-1.37l-.58,3.86c-1.34-2.27-3.04-5.27-2.07-7.94,1.46-4.04,10.82-5.27,13.87-1.9,2.55,2.81,1.04,9.05-2.7,11.6l8.32,24.39c-1.8,1.12-3.26,1.38-4.97,1.51l-6.2-20.07c-1.59,1.46-2.32,2.7-2.77,4.25l-4.59,15.89Z"/>
      <g>
        <path class="cls-20" d="M331.74,543.68c.46,4.06-2.79,9.48-3.36,9.53-.97.09-3.41.31-3.33-.73.12-1.13.64-2.15.1-2.54l-2.01-1.44c-1.13-.81.8-8.55,4.52-8.8,2.32-.16,3.8,1.59,4.07,3.97Z"/>
        <path class="cls-85" d="M329.3,543.5c.51,2.22-.72,4.29-1.63,4.47-1.51-.67-1.87-2.53-1.54-3.65.37-1.26,2.85-2.21,3.17-.82Z"/>
      </g>
    </g>
  </g>
</svg>