<?xml version="1.0" encoding="UTF-8"?>
<svg id="Layer_1" xmlns="http://www.w3.org/2000/svg" version="1.1" viewBox="0 0 1254 1254">
  <!-- Generator: Adobe Illustrator 30.3.0, SVG Export Plug-In . SVG Version: 2.1.3 Build 182)  -->
  <defs>
    <style>
      .st0 {
        fill: #14100d;
      }

      .st1 {
        fill: #f29d5a;
      }

      .st2 {
        fill: #b86132;
      }

      .st3 {
        fill: #ddd5cc;
      }

      .st4 {
        fill: #e0d7d0;
      }

      .st5 {
        fill: #1a120b;
      }

      .st6 {
        fill: #d3773e;
      }

      .st7 {
        fill: #e2bea0;
      }

      .st8 {
        fill: #4b2c14;
      }

      .st9 {
        fill: #ab5c35;
      }

      .st10 {
        fill: #e3bd9e;
      }

      .st11 {
        fill: #7f3d1c;
      }

      .st12 {
        fill: #6d3317;
      }

      .st13 {
        fill: #14100c;
      }

      .st14 {
        fill: #d57a40;
      }

      .st15 {
        fill: #dbbba1;
      }

      .st16 {
        fill: #5a4729;
      }

      .st17 {
        fill: #e2c1a6;
      }

      .st18 {
        fill: #543119;
      }

      .st19 {
        fill: #130c08;
      }
    </style>
  </defs>
  <path class="st13" d="M608.3,505.3c4.1,2.5,7.7,8.7,2.4,12.7-1,.2-2,.9-3.1.4-4.8-.2-9.6-1.5-14.4-3.7-5.2-1-9.8-2.9-13.8-5.6l-2.3.9c-7.1-2-14.3-3.2-21.6-3.7-6.9.5-13.7,1.1-20.6,1.9-.5.4-1.4.1-1.4-.4,2.9-4.8,6.1-9.6,11-11.8s10.3-5.9,16-5.6c13.1.7,45.4,9.2,47.8,14.9Z"/>
  <path class="st6" d="M607.6,518.4c-.9.5-.9,1.3.3,1.4,1,.1,3.8,0,4.4,1,4,6.8,3.4,14.4,2.9,21.7-.6.2-1.2.8-2.7.7.6-2.4,1.8-6,.4-8.5s-5.2-2.1-7.5.1c.3-1.5,1.4-3.8.2-5s-2.5.8-3,.3l-2.3-2.2h-2.8c-1.3-.1-.5-4-3.4-7.8,0-.4-.3-.7-.5-.9-7.3-7.2-19.8-6.8-29.4-6.4l-.5-.6c-.7-1.2-.6-2.2.8-2.4,5.1,0,10.2-.2,15.1-.9,9.6,2.4,19.1,5.4,28.2,9.4Z"/>
  <path class="st12" d="M579.1,512.7c5.1,0,16.2,4.8,14.9,7.6"/>
  <path class="st5" d="M589.7,520.2c4.1,3.2,6.2,7.7,8.5,12.1.3,1,.6,2.5.2,3.4-2.5.6-3.8-1.9-3-4.2h-1.9c0,0-2.1-2.3-6.3-7-.4,4.9-2.2,10.2-7.8,10.3-2.9,1.5-7,.7-10-.3l-4.2-1.4c-4.5-2.2-5.2-5.7-5.1-10.4l-5.1,2c.8,1.1.8,1.9-.2,3l-5.6-2.3c-1.7-.7-3.4-.3-4.7-2.2l15.1-6.8c10.3-3.1,21.6-2,30.2,3.9Z"/>
  <path class="st17" d="M595.4,531.4c.7,1.7,1.2,2.9-.7,3.7l-15.2.2v-.6c4.5-2.3,6.7-7.4,5.9-13,5.1,2.2,7.4,6.1,10,9.8Z"/>
  <path class="st15" d="M565.2,532.9c-5.9-1.9-7.5-4.2-10.5-5.4-.4-1.2-1.2-2.1-2.4-3.7l10.4-4.1c-2.1,5.2-.4,9.8,2.5,13.2Z"/>
  <path class="st8" d="M571.6,529.4c4.7,2,7-4.1,8.7-3.1s2.7,2.4,2.2,3.4c-2,4.6-6.5,4.7-10.8,4.1s-8.5-3-7.8-7.7c.2-1.4,4.5-1.5,5.2-.2s1.4,3.2,2.5,3.6Z"/>
  <circle class="st4" cx="578" cy="522.8" r="2.3"/>
  <path class="st0" d="M718.1,533.3c1.3,6.5-1.3,6.9-7.8,1.1-6.7-4-14.5-6.2-22.3-6.3l-1.7-1.6c-3.2-.5-7-.4-10.3-.2s-.4.4-.5,1c-9.2,0-18.3,0-27.5-.4l-.9-1.7c-1.4-4.6.7-9.7,5.8-11.2l5.5-1.7c14.4-2.2,28.7-1.6,43.1.5,6.6,3.5,11.6,8.7,15.2,15.2l1.6,5.2Z"/>
  <path class="st1" d="M686.3,526.6c10.3-.4,23.6,3.6,31.4,11.6.7-2,.3-3.4.5-4.9,1.6,1.9.5,4-.5,5.7,1.4,1.7,4.3,4.3,2.4,7.3-2.4,3.8-7,5.8-11.5,6.6-8.6,1.5-14.2,7.1-15.8,1.6-.4-1.3-1.6-1.8-2.6-1.6,2.8-2.2,6.7-3.5,10.2-4.4-4.8-5.9-10.6-10.4-17.3-13.4-3.4-.6-6-1.8-7.9-3.6-1.2-.9-.8-1.1.7-1.2,2-.3,2.4-.6,1.2-1-1.1-1.2-1.5-2.2-1.2-2.9,3.5-.2,7.1-.2,10.5.2Z"/>
  <path class="st14" d="M647.1,525.3c2.6.2,6.4.4,9.6.4h27.9c.8.1,1.4.5,1.7.9l-10.6.5,6.5.8c-1.7,1-3.7.4-5.3,1.5-1.7.4-2.1.7-1.2,1l-.7,1.2c-6.3-.7-12.5.8-17.5,4.7-1.5-2.3-3.2,3.3-7.2,1.5l-5,4.9c-2.2-1.9-2.7-4.6-4.6-7.7-4,8-4.7,16.1-5.6,24.6-.1,1.1,0,2.1-1.7,2.3l2.7-19.8c.9-6.9,4.5-14.2,10.9-16.6Z"/>
  <path class="st2" d="M598.4,535.6c-.7,1.3-3.1.4-4.5.4l-12.9.2c-.8,0-1.5-.1-1.5-1,8.1-2,14.7,1.8,15.9-3.9l3,4.2Z"/>
  <path class="st16" d="M612.6,506.9c2,2.5,2.2,6,1,9.3"/>
  <path class="st9" d="M653.6,541.1c2-.3,2,1,1.9,2.8,3.5.6,6.2,2.1,8.2,4.5.8.3,1.5.4,1.7,1.5l-3.4-.6-11.8-4.2c-.9-.3-1-1.8-.5-2.6s.7-.8,1.4-1.3c.8.9,1.7.3,2.6-.1Z"/>
  <path class="st11" d="M655.7,533.2c3.2-4.8,15.7-5.1,21.1-3.9"/>
  <path class="st19" d="M675,531.5c9.2,1,17.3,5.7,23.6,13s2.9,3.3,5.5,4.4c-2.6,2.2-6.7,1-14,4s-3.2.3-3.9-.6c.6-1.4,2-2.3,4.3-2.5,4.4-1,3.4-3.6-3-7.8-1.2,6.1-4,9.3-8.5,9.7-1.3.1-3.2.9-4.7.4l.4-1.8c5.1-1.7,6.2-3.2,3.1-4.5-2.7,2.1-6.3,2.5-9,.2-3.9-4.1-4.1-.4.5,2.3,4.2.3,8.3,3.7,1.6,3.3l-5.4-1.7c-.9-.4-1.5-.9-1.7-1.5-2.9-1.8-4-4.8-3.1-9-2.8,2.1-5.1,2.7-6.9,1.7,0,2.8-2.6,3-2.6.1l6.4-5c.4-2.6,2.7-4.1,6.8-4.7,3.9-1.2,7.5-1.2,10.7,0Z"/>
  <path class="st7" d="M686.1,552.2c-2.5.1-5.1.5-7.3-.6,4.6-2.4,6.8-7.3,6.8-12.5,4.7,2.3,7.5,5.3,10.4,9.1-3,2.6-6.4,3.8-9.9,4Z"/>
  <path class="st18" d="M674.2,552.1c-1.3.4-2.2-.1-3.4-.5.8,0,2.1.2,2.7-.9-4.1-.2-8.6-1.5-9.3-5.8s2.7-2.8,3.8-2.7c1.1,2.6,2.7,3.9,5,3.8s3.5-.9,4.9-2.7c.6,1.4,1.9,2.6,2.7,2.2s1-2,2.9-2.2c-.5,4.8-4.9,7.5-9.4,8.8Z"/>
  <path class="st10" d="M663.7,548.3l-10-3.4c.3-1.7.3-2.7,0-3.8l9.6-4.9c-1.8,4.3-1.5,8.4.5,12.1Z"/>
  <circle class="st3" cx="677.4" cy="539.2" r="2.2"/>
</svg>